<svg width="1200" height="720" viewBox="0 0 1200 720" fill="none" xmlns="http://www.w3.org/2000/svg">
  <defs>
    <linearGradient id="bg" x1="80" y1="40" x2="1120" y2="680" gradientUnits="userSpaceOnUse">
      <stop stop-color="#FFF9F2"/>
      <stop offset="1" stop-color="#F6EBDD"/>
    </linearGradient>
    <linearGradient id="panel" x1="0" y1="0" x2="0" y2="460" gradientUnits="userSpaceOnUse">
      <stop stop-color="#FFFCF8"/>
      <stop offset="1" stop-color="#FBF4EB"/>
    </linearGradient>
    <filter id="shadow" x="42" y="82" width="1116" height="578" filterUnits="userSpaceOnUse" color-interpolation-filters="sRGB">
      <feFlood flood-opacity="0" result="BackgroundImageFix"/>
      <feColorMatrix in="SourceAlpha" type="matrix" values="0 0 0 0 0 0 0 0 0 0 0 0 0 0 0 0 0 0 127 0" result="hardAlpha"/>
      <feOffset dy="12"/>
      <feGaussianBlur stdDeviation="18"/>
      <feColorMatrix type="matrix" values="0 0 0 0 0.384314 0 0 0 0 0.243137 0 0 0 0 0.137255 0 0 0 0.14 0"/>
      <feBlend mode="normal" in2="BackgroundImageFix" result="effect1_dropShadow_1_2"/>
      <feBlend mode="normal" in="SourceGraphic" in2="effect1_dropShadow_1_2" result="shape"/>
    </filter>
    <marker id="tealArrow" viewBox="0 0 14 14" refX="10" refY="7" markerWidth="10" markerHeight="10" orient="auto">
      <path d="M1 1L12 7L1 13V1Z" fill="#285950"/>
    </marker>
    <marker id="orangeArrow" viewBox="0 0 14 14" refX="10" refY="7" markerWidth="10" markerHeight="10" orient="auto">
      <path d="M1 1L12 7L1 13V1Z" fill="#C65D2E"/>
    </marker>
  </defs>

  <rect width="1200" height="720" rx="40" fill="url(#bg)"/>

  <text x="82" y="88" fill="#8E3513" font-size="22" font-weight="800" font-family="SUIT, Pretendard, sans-serif">LINEAR ALGEBRA VISUAL NOTE</text>
  <text x="82" y="134" fill="#1F1A17" font-size="42" font-weight="800" font-family="SUIT, Pretendard, sans-serif">고유벡터와 고유값을 그림으로 이해하기</text>
  <text x="82" y="174" fill="#675E57" font-size="22" font-family="SUIT, Pretendard, sans-serif">핵심은 "방향이 안 바뀐다"가 아니라 "같은 직선 위에 남는다"는 점이다.</text>

  <g filter="url(#shadow)">
    <rect x="66" y="214" width="1068" height="404" rx="30" fill="#FFFDF9"/>
  </g>

  <g transform="translate(88 236)">
    <rect width="486" height="360" rx="26" fill="url(#panel)" stroke="#E7D7C4" stroke-width="2"/>
    <rect x="24" y="22" width="134" height="34" rx="17" fill="#23433E"/>
    <text x="47" y="46" fill="#FFF9F2" font-size="18" font-weight="800" font-family="SUIT, Pretendard, sans-serif">일반 벡터</text>
    <text x="24" y="92" fill="#1F1A17" font-size="26" font-weight="800" font-family="SUIT, Pretendard, sans-serif">행렬을 곱하면 방향도 바뀐다</text>
    <text x="24" y="126" fill="#675E57" font-size="18" font-family="SUIT, Pretendard, sans-serif">대부분의 벡터는 변환 후에 다른 방향으로 꺾인다.</text>

    <g transform="translate(24 156)">
      <rect width="438" height="146" rx="22" fill="#FFF9F3" stroke="#E7D7C4" stroke-width="1.5"/>
      <line x1="219" y1="20" x2="219" y2="126" stroke="#D6C3AF" stroke-width="2"/>
      <line x1="42" y1="73" x2="396" y2="73" stroke="#D6C3AF" stroke-width="2"/>
      <circle cx="219" cy="73" r="7" fill="#8E3513"/>
      <line x1="219" y1="73" x2="148" y2="32" stroke="#285950" stroke-width="8" stroke-linecap="round" marker-end="url(#tealArrow)"/>
      <line x1="219" y1="73" x2="336" y2="34" stroke="#C65D2E" stroke-width="8" stroke-linecap="round" marker-end="url(#orangeArrow)"/>
      <text x="132" y="34" fill="#285950" font-size="19" font-weight="800" font-family="SUIT, Pretendard, sans-serif">x</text>
      <text x="344" y="38" fill="#C65D2E" font-size="19" font-weight="800" font-family="SUIT, Pretendard, sans-serif">Ax</text>
    </g>

    <rect x="24" y="318" width="438" height="26" rx="13" fill="#F5E5D8"/>
    <text x="38" y="337" fill="#8E3513" font-size="16" font-weight="800" font-family="SUIT, Pretendard, sans-serif">읽는 법</text>
    <text x="104" y="337" fill="#6B5F56" font-size="16" font-family="SUIT, Pretendard, sans-serif">x와 Ax가 서로 다른 직선 위에 있다.</text>
  </g>

  <g transform="translate(624 236)">
    <rect width="486" height="360" rx="26" fill="url(#panel)" stroke="#E2C2AD" stroke-width="2"/>
    <rect x="24" y="22" width="146" height="34" rx="17" fill="#C65D2E"/>
    <text x="47" y="46" fill="#FFF9F2" font-size="18" font-weight="800" font-family="SUIT, Pretendard, sans-serif">고유벡터</text>
    <text x="24" y="92" fill="#1F1A17" font-size="26" font-weight="800" font-family="SUIT, Pretendard, sans-serif">변환 후에도 같은 직선 위에 남는다</text>
    <text x="24" y="126" fill="#675E57" font-size="18" font-family="SUIT, Pretendard, sans-serif">길이는 달라질 수 있지만, span 자체는 보존된다.</text>

    <g transform="translate(24 156)">
      <rect width="438" height="146" rx="22" fill="#FFF9F3" stroke="#E2C2AD" stroke-width="1.5"/>
      <line x1="219" y1="20" x2="219" y2="126" stroke="#D6C3AF" stroke-width="2"/>
      <line x1="42" y1="73" x2="396" y2="73" stroke="#D6C3AF" stroke-width="2"/>
      <line x1="86" y1="73" x2="356" y2="73" stroke="#E0A284" stroke-width="6" stroke-linecap="round"/>
      <circle cx="219" cy="73" r="7" fill="#8E3513"/>
      <line x1="219" y1="73" x2="154" y2="73" stroke="#285950" stroke-width="8" stroke-linecap="round" marker-end="url(#tealArrow)"/>
      <line x1="219" y1="73" x2="336" y2="73" stroke="#C65D2E" stroke-width="8" stroke-linecap="round" marker-end="url(#orangeArrow)"/>
      <text x="144" y="56" fill="#285950" font-size="19" font-weight="800" font-family="SUIT, Pretendard, sans-serif">x</text>
      <text x="342" y="56" fill="#C65D2E" font-size="19" font-weight="800" font-family="SUIT, Pretendard, sans-serif">Ax = λx</text>
    </g>

    <rect x="24" y="318" width="438" height="26" rx="13" fill="#F9D8C7"/>
    <text x="38" y="337" fill="#8E3513" font-size="16" font-weight="800" font-family="SUIT, Pretendard, sans-serif">읽는 법</text>
    <text x="104" y="337" fill="#6B5F56" font-size="16" font-family="SUIT, Pretendard, sans-serif">x와 Ax가 같은 직선 위에 있고 길이만 바뀐다.</text>
  </g>

  <g transform="translate(88 638)">
    <rect width="1022" height="38" rx="19" fill="#FFF2E6"/>
    <text x="20" y="26" fill="#8E3513" font-size="18" font-weight="800" font-family="SUIT, Pretendard, sans-serif">면접용 핵심 문장</text>
    <text x="190" y="26" fill="#675E57" font-size="18" font-family="SUIT, Pretendard, sans-serif">고유벡터는 변환 후에도 같은 직선 위에 남는 벡터이고, 고유값은 그때의 배율이다.</text>
  </g>
</svg>
