<?xml version="1.0" encoding="utf-8" standalone="no"?>
<!DOCTYPE svg PUBLIC "-//W3C//DTD SVG 1.1//EN"
  "http://www.w3.org/Graphics/SVG/1.1/DTD/svg11.dtd">
<svg xmlns:xlink="http://www.w3.org/1999/xlink" width="878.4pt" height="518.4pt" viewBox="0 0 878.4 518.4" xmlns="http://www.w3.org/2000/svg" version="1.1">
 <metadata>
  <rdf:RDF xmlns:dc="http://purl.org/dc/elements/1.1/" xmlns:cc="http://creativecommons.org/ns#" xmlns:rdf="http://www.w3.org/1999/02/22-rdf-syntax-ns#">
   <cc:Work>
    <dc:type rdf:resource="http://purl.org/dc/dcmitype/StillImage"/>
    <dc:date>2026-04-16T01:18:49.768418</dc:date>
    <dc:format>image/svg+xml</dc:format>
    <dc:creator>
     <cc:Agent>
      <dc:title>Matplotlib v3.10.8, https://matplotlib.org/</dc:title>
     </cc:Agent>
    </dc:creator>
   </cc:Work>
  </rdf:RDF>
 </metadata>
 <defs>
  <style type="text/css">*{stroke-linejoin: round; stroke-linecap: butt}</style>
 </defs>
 <g id="figure_1">
  <g id="patch_1">
   <path d="M 0 518.4 
L 878.4 518.4 
L 878.4 0 
L 0 0 
z
" style="fill: #fff8f1"/>
  </g>
  <g id="axes_1">
   <g id="patch_2">
    <path d="M 52.992 489.528 
L 825.408 489.528 
Q 851.328 489.528 851.328 474.408 
L 851.328 54.072 
Q 851.328 38.952 825.408 38.952 
L 52.992 38.952 
Q 27.072 38.952 27.072 54.072 
L 27.072 474.408 
Q 27.072 489.528 52.992 489.528 
z
" style="fill: #fffdf9; stroke: #eadbca; stroke-width: 1.2; stroke-linejoin: miter"/>
   </g>
   <g id="patch_3">
    <path d="M 69.408 469.872 
L 808.992 469.872 
Q 826.272 469.872 826.272 459.792 
L 826.272 444.168 
Q 826.272 434.088 808.992 434.088 
L 69.408 434.088 
Q 52.128 434.088 52.128 444.168 
L 52.128 459.792 
Q 52.128 469.872 69.408 469.872 
z
" clip-path="url(#pa5861df0d1)" style="fill: #f2e3d5"/>
   </g>
   <g id="text_1">
    <!-- LINEAR ALGEBRA VISUAL NOTE -->
    <g style="fill: #8e3513" transform="translate(59.04 57.6) scale(0.16 -0.16)">
     <defs>
      <path id="MalgunGothicBold-4c" d="M 3178 0 
L 547 0 
L 547 4600 
L 1438 4600 
L 1438 738 
L 3178 738 
L 3178 0 
z
" transform="scale(0.015625)"/>
      <path id="MalgunGothicBold-49" d="M 1434 4600 
L 1434 0 
L 544 0 
L 544 4600 
L 1434 4600 
z
" transform="scale(0.015625)"/>
      <path id="MalgunGothicBold-4e" d="M 4556 0 
L 3625 0 
L 1591 3116 
Q 1466 3306 1384 3472 
L 1372 3472 
Q 1397 3253 1397 2759 
L 1397 0 
L 547 0 
L 547 4600 
L 1541 4600 
L 3503 1566 
Q 3653 1334 3722 1209 
L 3734 1209 
Q 3709 1331 3709 1853 
L 3709 4600 
L 4556 4600 
L 4556 0 
z
" transform="scale(0.015625)"/>
      <path id="MalgunGothicBold-45" d="M 3209 0 
L 547 0 
L 547 4600 
L 3106 4600 
L 3106 3859 
L 1438 3859 
L 1438 2688 
L 2988 2688 
L 2988 1950 
L 1438 1950 
L 1438 738 
L 3209 738 
L 3209 0 
z
" transform="scale(0.015625)"/>
      <path id="MalgunGothicBold-41" d="M 4447 0 
L 3475 0 
L 3103 1100 
L 1375 1100 
L 1013 0 
L 41 0 
L 1744 4600 
L 2772 4600 
L 4447 0 
z
M 2881 1806 
L 2319 3472 
Q 2284 3572 2247 3853 
L 2225 3853 
Q 2200 3644 2147 3478 
L 1581 1806 
L 2881 1806 
z
" transform="scale(0.015625)"/>
      <path id="MalgunGothicBold-52" d="M 4241 0 
L 3209 0 
L 2478 1216 
Q 2256 1584 2100 1700 
Q 1944 1816 1763 1816 
L 1438 1816 
L 1438 0 
L 547 0 
L 547 4600 
L 2109 4600 
Q 3703 4600 3703 3356 
Q 3703 2900 3436 2564 
Q 3169 2228 2675 2088 
L 2675 2075 
Q 2991 1969 3372 1366 
L 4241 0 
z
M 1438 3906 
L 1438 2513 
L 1969 2513 
Q 2331 2513 2548 2723 
Q 2766 2934 2766 3250 
Q 2766 3906 1984 3906 
L 1438 3906 
z
" transform="scale(0.015625)"/>
      <path id="MalgunGothicBold-20" transform="scale(0.015625)"/>
      <path id="MalgunGothicBold-47" d="M 4225 313 
Q 3547 -81 2588 -81 
Q 1519 -81 887 539 
Q 256 1159 256 2228 
Q 256 3303 943 3989 
Q 1631 4675 2763 4675 
Q 3500 4675 4044 4463 
L 4044 3597 
Q 3513 3919 2738 3919 
Q 2053 3919 1623 3467 
Q 1194 3016 1194 2275 
Q 1194 1519 1581 1098 
Q 1969 678 2644 678 
Q 3056 678 3331 813 
L 3331 1828 
L 2388 1828 
L 2388 2553 
L 4225 2553 
L 4225 313 
z
" transform="scale(0.015625)"/>
      <path id="MalgunGothicBold-42" d="M 547 0 
L 547 4600 
L 2113 4600 
Q 2822 4600 3222 4317 
Q 3622 4034 3622 3528 
Q 3622 3159 3387 2876 
Q 3153 2594 2756 2472 
L 2756 2463 
Q 3244 2400 3531 2100 
Q 3819 1800 3819 1356 
Q 3819 738 3375 369 
Q 2931 0 2188 0 
L 547 0 
z
M 1438 3916 
L 1438 2709 
L 1922 2709 
Q 2281 2709 2484 2879 
Q 2688 3050 2688 3359 
Q 2688 3916 1894 3916 
L 1438 3916 
z
M 1438 2022 
L 1438 684 
L 2050 684 
Q 2444 684 2662 865 
Q 2881 1047 2881 1369 
Q 2881 2022 2019 2022 
L 1438 2022 
z
" transform="scale(0.015625)"/>
      <path id="MalgunGothicBold-56" d="M 4253 4600 
L 2638 0 
L 1634 0 
L 38 4600 
L 1003 4600 
L 2053 1269 
Q 2119 1059 2147 822 
L 2166 822 
Q 2178 997 2266 1278 
L 3319 4600 
L 4253 4600 
z
" transform="scale(0.015625)"/>
      <path id="MalgunGothicBold-53" d="M 334 1091 
Q 881 638 1588 638 
Q 2013 638 2222 786 
Q 2431 934 2431 1175 
Q 2431 1384 2256 1559 
Q 2081 1734 1409 2022 
Q 838 2278 580 2598 
Q 322 2919 322 3350 
Q 322 3972 803 4323 
Q 1284 4675 2066 4675 
Q 2766 4675 3169 4500 
L 3169 3647 
Q 2722 3953 2091 3953 
Q 1719 3953 1489 3812 
Q 1259 3672 1259 3425 
Q 1259 3228 1418 3065 
Q 1578 2903 2166 2644 
Q 2841 2350 3103 2026 
Q 3366 1703 3366 1253 
Q 3366 603 2902 261 
Q 2438 -81 1600 -81 
Q 822 -81 334 178 
L 334 1091 
z
" transform="scale(0.015625)"/>
      <path id="MalgunGothicBold-55" d="M 4188 1953 
Q 4188 -81 2306 -81 
Q 497 -81 497 1897 
L 497 4600 
L 1391 4600 
L 1391 1897 
Q 1391 694 2353 694 
Q 3297 694 3297 1856 
L 3297 4600 
L 4188 4600 
L 4188 1953 
z
" transform="scale(0.015625)"/>
      <path id="MalgunGothicBold-4f" d="M 256 2241 
Q 256 3325 879 4000 
Q 1503 4675 2538 4675 
Q 3519 4675 4117 4020 
Q 4716 3366 4716 2341 
Q 4716 1259 4098 589 
Q 3481 -81 2466 -81 
Q 1478 -81 867 572 
Q 256 1225 256 2241 
z
M 1194 2291 
Q 1194 1591 1539 1142 
Q 1884 694 2478 694 
Q 3094 694 3436 1120 
Q 3778 1547 3778 2278 
Q 3778 3031 3447 3465 
Q 3116 3900 2509 3900 
Q 1897 3900 1545 3445 
Q 1194 2991 1194 2291 
z
" transform="scale(0.015625)"/>
      <path id="MalgunGothicBold-54" d="M 3628 3859 
L 2313 3859 
L 2313 0 
L 1419 0 
L 1419 3859 
L 106 3859 
L 106 4600 
L 3628 4600 
L 3628 3859 
z
" transform="scale(0.015625)"/>
     </defs>
     <use xlink:href="#MalgunGothicBold-4c"/>
     <use xlink:href="#MalgunGothicBold-49" transform="translate(51.220703 0)"/>
     <use xlink:href="#MalgunGothicBold-4e" transform="translate(82.226562 0)"/>
     <use xlink:href="#MalgunGothicBold-45" transform="translate(162.011719 0)"/>
     <use xlink:href="#MalgunGothicBold-41" transform="translate(217.244141 0)"/>
     <use xlink:href="#MalgunGothicBold-52" transform="translate(287.605469 0)"/>
     <use xlink:href="#MalgunGothicBold-20" transform="translate(352.986328 0)"/>
     <use xlink:href="#MalgunGothicBold-41" transform="translate(388.142578 0)"/>
     <use xlink:href="#MalgunGothicBold-4c" transform="translate(458.503906 0)"/>
     <use xlink:href="#MalgunGothicBold-47" transform="translate(506.974609 0)"/>
     <use xlink:href="#MalgunGothicBold-45" transform="translate(579.191406 0)"/>
     <use xlink:href="#MalgunGothicBold-42" transform="translate(633.048828 0)"/>
     <use xlink:href="#MalgunGothicBold-52" transform="translate(696.769531 0)"/>
     <use xlink:href="#MalgunGothicBold-41" transform="translate(762.150391 0)"/>
     <use xlink:href="#MalgunGothicBold-20" transform="translate(832.511719 0)"/>
     <use xlink:href="#MalgunGothicBold-56" transform="translate(867.667969 0)"/>
     <use xlink:href="#MalgunGothicBold-49" transform="translate(934.757812 0)"/>
     <use xlink:href="#MalgunGothicBold-53" transform="translate(965.763672 0)"/>
     <use xlink:href="#MalgunGothicBold-55" transform="translate(1022.355469 0)"/>
     <use xlink:href="#MalgunGothicBold-41" transform="translate(1093.076172 0)"/>
     <use xlink:href="#MalgunGothicBold-4c" transform="translate(1163.4375 0)"/>
     <use xlink:href="#MalgunGothicBold-20" transform="translate(1214.658203 0)"/>
     <use xlink:href="#MalgunGothicBold-4e" transform="translate(1249.814453 0)"/>
     <use xlink:href="#MalgunGothicBold-4f" transform="translate(1329.599609 0)"/>
     <use xlink:href="#MalgunGothicBold-54" transform="translate(1402.861328 0)"/>
     <use xlink:href="#MalgunGothicBold-45" transform="translate(1461.113281 0)"/>
    </g>
   </g>
   <g id="text_2">
    <!-- 고유벡터와 고유값을 그림으로 이해하기 -->
    <g style="fill: #1f1a17" transform="translate(59.04 85.32) scale(0.28 -0.28)">
     <defs>
      <path id="MalgunGothicBold-ace0" d="M 5209 3647 
Q 5209 2613 5069 1563 
L 4294 1619 
Q 4422 2584 4422 3463 
L 4422 4269 
L 1113 4269 
L 1113 4916 
L 5209 4916 
L 5209 3647 
z
M 403 263 
L 403 922 
L 2394 922 
L 2394 2931 
L 3181 2931 
L 3181 922 
L 5997 922 
L 5997 263 
L 403 263 
z
" transform="scale(0.015625)"/>
      <path id="MalgunGothicBold-c720" d="M 3200 2606 
Q 2288 2606 1739 3006 
Q 1191 3406 1191 4013 
Q 1191 4613 1736 4997 
Q 2281 5381 3188 5381 
Q 4106 5381 4651 4998 
Q 5197 4616 5197 4013 
Q 5197 3422 4642 3014 
Q 4088 2606 3200 2606 
z
M 3188 4744 
Q 2619 4744 2305 4537 
Q 1991 4331 1991 4013 
Q 1991 3697 2309 3490 
Q 2628 3284 3188 3284 
Q 3747 3284 4065 3490 
Q 4384 3697 4384 4013 
Q 4384 4338 4064 4541 
Q 3744 4744 3188 4744 
z
M 1819 -556 
L 1819 1441 
L 403 1441 
L 403 2100 
L 5997 2100 
L 5997 1441 
L 4581 1441 
L 4581 -556 
L 3803 -556 
L 3803 1441 
L 2597 1441 
L 2597 -556 
L 1819 -556 
z
" transform="scale(0.015625)"/>
      <path id="MalgunGothicBold-bca1" d="M 4856 1991 
L 4856 5466 
L 5631 5466 
L 5631 1991 
L 4856 1991 
z
M 634 2356 
L 634 5222 
L 1409 5222 
L 1409 4353 
L 2278 4353 
L 2278 5222 
L 3047 5222 
L 3047 4056 
L 3653 4056 
L 3653 5344 
L 4428 5344 
L 4428 1991 
L 3653 1991 
L 3653 3400 
L 3047 3400 
L 3047 2356 
L 634 2356 
z
M 2278 3700 
L 1409 3700 
L 1409 3009 
L 2278 3009 
L 2278 3700 
z
M 4850 -563 
L 4850 1069 
L 1631 1069 
L 1631 1734 
L 5631 1734 
L 5631 -563 
L 4850 -563 
z
" transform="scale(0.015625)"/>
      <path id="MalgunGothicBold-d130" d="M 4800 -563 
L 4800 2619 
L 3700 2619 
L 3700 3278 
L 4800 3278 
L 4800 5466 
L 5569 5466 
L 5569 -563 
L 4800 -563 
z
M 1466 2834 
L 1466 1772 
L 1778 1772 
Q 3316 1772 3994 1863 
L 4038 1216 
Q 3413 1144 2855 1131 
Q 2297 1119 697 1119 
L 697 4941 
L 3713 4941 
L 3713 4281 
L 1466 4281 
L 1466 3488 
L 3225 3488 
L 3225 2834 
L 1466 2834 
z
" transform="scale(0.015625)"/>
      <path id="MalgunGothicBold-c640" d="M 5363 2419 
L 5363 -563 
L 4575 -563 
L 4575 5466 
L 5363 5466 
L 5363 3078 
L 6291 3078 
L 6291 2419 
L 5363 2419 
z
M 263 378 
L 172 1038 
Q 1106 1038 1856 1056 
L 1856 2100 
Q 1269 2213 919 2609 
Q 569 3006 569 3572 
Q 569 4250 1059 4672 
Q 1550 5094 2272 5094 
Q 2988 5094 3455 4672 
Q 3922 4250 3922 3572 
Q 3922 3016 3580 2619 
Q 3238 2222 2644 2100 
L 2644 1075 
Q 3544 1091 4313 1141 
L 4359 488 
Q 2416 378 263 378 
z
M 2247 4434 
Q 1850 4434 1609 4190 
Q 1369 3947 1369 3572 
Q 1369 3203 1616 2961 
Q 1863 2719 2247 2719 
Q 2634 2719 2878 2961 
Q 3122 3203 3122 3572 
Q 3122 3947 2873 4190 
Q 2625 4434 2247 4434 
z
" transform="scale(0.015625)"/>
      <path id="MalgunGothicBold-ac12" d="M 5178 3406 
L 5178 2272 
L 4391 2272 
L 4391 5466 
L 5178 5466 
L 5178 4063 
L 6028 4063 
L 6028 3406 
L 5178 3406 
z
M 3681 5203 
Q 3606 4184 2912 3368 
Q 2219 2553 922 2106 
L 416 2741 
Q 1369 2988 1951 3486 
Q 2534 3984 2731 4544 
L 775 4544 
L 775 5203 
L 3681 5203 
z
M 1172 -428 
L 1172 1978 
L 1888 1978 
L 1888 1363 
L 2613 1363 
L 2613 1978 
L 3328 1978 
L 3328 19 
Q 4178 494 4178 1594 
L 4178 1978 
L 4897 1978 
L 4897 1594 
Q 4897 1050 5155 612 
Q 5413 175 5875 -44 
L 5369 -575 
Q 4950 -316 4538 347 
Q 4147 -328 3653 -569 
L 3328 -191 
L 3328 -428 
L 1172 -428 
z
M 2613 763 
L 1888 763 
L 1888 172 
L 2613 172 
L 2613 763 
z
" transform="scale(0.015625)"/>
      <path id="MalgunGothicBold-c744" d="M 3200 3334 
Q 2241 3334 1703 3623 
Q 1166 3913 1166 4397 
Q 1166 4888 1706 5173 
Q 2247 5459 3200 5459 
Q 4159 5459 4696 5176 
Q 5234 4894 5234 4397 
Q 5234 3909 4700 3621 
Q 4166 3334 3200 3334 
z
M 3200 4863 
Q 2581 4863 2273 4730 
Q 1966 4597 1966 4397 
Q 1966 4188 2278 4058 
Q 2591 3928 3200 3928 
Q 3809 3928 4121 4058 
Q 4434 4188 4434 4397 
Q 4434 4597 4126 4730 
Q 3819 4863 3200 4863 
z
M 403 2388 
L 403 3003 
L 5997 3003 
L 5997 2388 
L 403 2388 
z
M 1222 -466 
L 1222 1038 
L 4391 1038 
L 4391 1403 
L 1222 1403 
L 1222 2016 
L 5172 2016 
L 5172 494 
L 2003 494 
L 2003 147 
L 5319 147 
L 5319 -466 
L 1222 -466 
z
" transform="scale(0.015625)"/>
      <path id="MalgunGothicBold-adf8" d="M 5997 469 
Q 5203 459 4722 459 
L 3972 459 
L 403 469 
L 403 1113 
L 4191 1113 
Q 4331 2019 4331 3219 
L 4331 4238 
L 1153 4238 
L 1153 4884 
L 5119 4884 
L 5119 3438 
Q 5119 2366 4966 1113 
L 5997 1113 
L 5997 469 
z
" transform="scale(0.015625)"/>
      <path id="MalgunGothicBold-b9bc" d="M 4703 2053 
L 4703 5466 
L 5472 5466 
L 5472 2053 
L 4703 2053 
z
M 4191 2344 
Q 3681 2266 3292 2237 
Q 2903 2209 2250 2213 
L 800 2216 
L 800 4072 
L 2925 4072 
L 2925 4616 
L 800 4616 
L 800 5253 
L 3700 5253 
L 3700 3456 
L 1569 3456 
L 1569 2853 
Q 2841 2853 3302 2875 
Q 3763 2897 4097 2981 
L 4191 2344 
z
M 1581 -434 
L 1581 1800 
L 5472 1800 
L 5472 -434 
L 1581 -434 
z
M 4709 1147 
L 2350 1147 
L 2350 219 
L 4709 219 
L 4709 1147 
z
" transform="scale(0.015625)"/>
      <path id="MalgunGothicBold-c73c" d="M 3200 1953 
Q 2303 1953 1711 2368 
Q 1119 2784 1119 3506 
Q 1119 4225 1708 4640 
Q 2297 5056 3200 5056 
Q 4094 5056 4684 4640 
Q 5275 4225 5275 3506 
Q 5275 2784 4686 2368 
Q 4097 1953 3200 1953 
z
M 3200 4409 
Q 2609 4409 2264 4165 
Q 1919 3922 1919 3506 
Q 1919 3084 2264 2842 
Q 2609 2600 3200 2600 
Q 3788 2600 4131 2844 
Q 4475 3088 4475 3506 
Q 4475 3922 4133 4165 
Q 3791 4409 3200 4409 
z
M 403 313 
L 403 959 
L 5997 959 
L 5997 313 
L 403 313 
z
" transform="scale(0.015625)"/>
      <path id="MalgunGothicBold-b85c" d="M 403 250 
L 403 903 
L 2809 903 
L 2809 1747 
L 1197 1747 
L 1197 3688 
L 4391 3688 
L 4391 4294 
L 1209 4294 
L 1209 4941 
L 5178 4941 
L 5178 3059 
L 1984 3059 
L 1984 2394 
L 5338 2394 
L 5338 1747 
L 3591 1747 
L 3591 903 
L 5997 903 
L 5997 250 
L 403 250 
z
" transform="scale(0.015625)"/>
      <path id="MalgunGothicBold-c774" d="M 4691 -563 
L 4691 5466 
L 5466 5466 
L 5466 -563 
L 4691 -563 
z
M 2203 903 
Q 1484 903 1050 1468 
Q 616 2034 616 2994 
Q 616 3969 1048 4525 
Q 1481 5081 2203 5081 
Q 2922 5081 3351 4520 
Q 3781 3959 3781 2994 
Q 3781 2025 3353 1464 
Q 2925 903 2203 903 
z
M 2203 4416 
Q 1844 4416 1612 4031 
Q 1381 3647 1381 2988 
Q 1381 2338 1618 1950 
Q 1856 1563 2203 1563 
Q 2547 1563 2784 1945 
Q 3022 2328 3022 2988 
Q 3022 3647 2792 4031 
Q 2563 4416 2203 4416 
z
" transform="scale(0.015625)"/>
      <path id="MalgunGothicBold-d574" d="M 4878 -563 
L 4878 2272 
L 4434 2272 
L 4434 -378 
L 3694 -378 
L 3694 5350 
L 4434 5350 
L 4434 2931 
L 4878 2931 
L 4878 5466 
L 5644 5466 
L 5644 -563 
L 4878 -563 
z
M 378 3928 
L 378 4581 
L 1509 4581 
L 1509 5325 
L 2291 5325 
L 2291 4581 
L 3391 4581 
L 3391 3928 
L 378 3928 
z
M 1906 813 
Q 1300 813 922 1203 
Q 544 1594 544 2234 
Q 544 2875 917 3261 
Q 1291 3647 1906 3647 
Q 2513 3647 2884 3259 
Q 3256 2872 3256 2234 
Q 3256 1594 2886 1203 
Q 2516 813 1906 813 
z
M 1906 2969 
Q 1622 2969 1464 2770 
Q 1306 2572 1306 2234 
Q 1306 1897 1467 1690 
Q 1628 1484 1906 1484 
Q 2181 1484 2342 1690 
Q 2503 1897 2503 2234 
Q 2503 2569 2345 2769 
Q 2188 2969 1906 2969 
z
" transform="scale(0.015625)"/>
      <path id="MalgunGothicBold-d558" d="M 5259 2188 
L 5259 -563 
L 4475 -563 
L 4475 5466 
L 5259 5466 
L 5259 2847 
L 6203 2847 
L 6203 2188 
L 5259 2188 
z
M 481 3975 
L 481 4634 
L 1925 4634 
L 1925 5466 
L 2719 5466 
L 2719 4634 
L 4166 4634 
L 4166 3975 
L 481 3975 
z
M 2309 838 
Q 1616 838 1172 1236 
Q 728 1634 728 2247 
Q 728 2878 1165 3273 
Q 1603 3669 2316 3669 
Q 3022 3669 3465 3272 
Q 3909 2875 3909 2241 
Q 3909 1625 3465 1231 
Q 3022 838 2309 838 
z
M 2316 3009 
Q 1947 3009 1728 2801 
Q 1509 2594 1509 2247 
Q 1509 1916 1725 1706 
Q 1941 1497 2316 1497 
Q 2688 1497 2908 1709 
Q 3128 1922 3128 2247 
Q 3128 2588 2908 2798 
Q 2688 3009 2316 3009 
z
" transform="scale(0.015625)"/>
      <path id="MalgunGothicBold-ae30" d="M 4678 -563 
L 4678 5466 
L 5447 5466 
L 5447 -563 
L 4678 -563 
z
M 3756 4934 
Q 3734 3644 3026 2551 
Q 2319 1459 1038 756 
L 434 1325 
Q 1359 1678 2062 2493 
Q 2766 3309 2925 4275 
L 800 4275 
L 800 4934 
L 3756 4934 
z
" transform="scale(0.015625)"/>
     </defs>
     <use xlink:href="#MalgunGothicBold-ace0"/>
     <use xlink:href="#MalgunGothicBold-c720" transform="translate(100 0)"/>
     <use xlink:href="#MalgunGothicBold-bca1" transform="translate(200 0)"/>
     <use xlink:href="#MalgunGothicBold-d130" transform="translate(300 0)"/>
     <use xlink:href="#MalgunGothicBold-c640" transform="translate(400 0)"/>
     <use xlink:href="#MalgunGothicBold-20" transform="translate(500 0)"/>
     <use xlink:href="#MalgunGothicBold-ace0" transform="translate(535.15625 0)"/>
     <use xlink:href="#MalgunGothicBold-c720" transform="translate(635.15625 0)"/>
     <use xlink:href="#MalgunGothicBold-ac12" transform="translate(735.15625 0)"/>
     <use xlink:href="#MalgunGothicBold-c744" transform="translate(835.15625 0)"/>
     <use xlink:href="#MalgunGothicBold-20" transform="translate(935.15625 0)"/>
     <use xlink:href="#MalgunGothicBold-adf8" transform="translate(970.3125 0)"/>
     <use xlink:href="#MalgunGothicBold-b9bc" transform="translate(1070.3125 0)"/>
     <use xlink:href="#MalgunGothicBold-c73c" transform="translate(1170.3125 0)"/>
     <use xlink:href="#MalgunGothicBold-b85c" transform="translate(1270.3125 0)"/>
     <use xlink:href="#MalgunGothicBold-20" transform="translate(1370.3125 0)"/>
     <use xlink:href="#MalgunGothicBold-c774" transform="translate(1405.46875 0)"/>
     <use xlink:href="#MalgunGothicBold-d574" transform="translate(1505.46875 0)"/>
     <use xlink:href="#MalgunGothicBold-d558" transform="translate(1605.46875 0)"/>
     <use xlink:href="#MalgunGothicBold-ae30" transform="translate(1705.46875 0)"/>
    </g>
   </g>
   <g id="text_3">
    <!-- 핵심은 "방향이 안 바뀐다"보다 "같은 직선 위에 남는다"이다. -->
    <g style="fill: #675e57" transform="translate(59.04 108) scale(0.15 -0.15)">
     <defs>
      <path id="MalgunGothic-d575" d="M 5075 1813 
L 5075 3250 
L 4372 3250 
L 4372 1813 
L 3909 1813 
L 3909 5344 
L 4372 5344 
L 4372 3669 
L 5075 3669 
L 5075 5466 
L 5538 5466 
L 5538 1813 
L 5075 1813 
z
M 459 4263 
L 459 4672 
L 1784 4672 
L 1784 5403 
L 2247 5403 
L 2247 4672 
L 3559 4672 
L 3559 4263 
L 459 4263 
z
M 2022 1978 
Q 1431 1978 1070 2268 
Q 709 2559 709 2994 
Q 709 3425 1071 3715 
Q 1434 4006 2022 4006 
Q 2609 4006 2971 3715 
Q 3334 3425 3334 2994 
Q 3334 2559 2975 2268 
Q 2616 1978 2022 1978 
z
M 2022 3622 
Q 1656 3622 1404 3444 
Q 1153 3266 1153 2994 
Q 1153 2725 1404 2547 
Q 1656 2369 2022 2369 
Q 2394 2369 2647 2545 
Q 2900 2722 2900 2994 
Q 2900 3263 2644 3442 
Q 2388 3622 2022 3622 
z
M 5069 -563 
L 5069 1056 
L 1550 1056 
L 1550 1472 
L 5538 1472 
L 5538 -563 
L 5069 -563 
z
" transform="scale(0.015625)"/>
      <path id="MalgunGothic-c2ec" d="M 4884 2113 
L 4884 5466 
L 5350 5466 
L 5350 2113 
L 4884 2113 
z
M 3653 2328 
Q 3244 2550 2831 2950 
Q 2419 3350 2253 3700 
Q 2075 3303 1659 2858 
Q 1244 2413 819 2175 
L 488 2497 
Q 1134 2806 1571 3393 
Q 2009 3981 2009 4628 
L 2009 5269 
L 2463 5269 
L 2463 4628 
Q 2463 4025 2916 3472 
Q 3369 2919 3969 2669 
L 3653 2328 
z
M 1625 -397 
L 1625 1766 
L 5350 1766 
L 5350 -397 
L 1625 -397 
z
M 4891 1356 
L 2088 1356 
L 2088 13 
L 4891 13 
L 4891 1356 
z
" transform="scale(0.015625)"/>
      <path id="MalgunGothic-c740" d="M 3200 2950 
Q 2309 2950 1817 3287 
Q 1325 3625 1325 4159 
Q 1325 4694 1815 5028 
Q 2306 5363 3200 5363 
Q 4094 5363 4587 5028 
Q 5081 4694 5081 4159 
Q 5081 3625 4584 3287 
Q 4088 2950 3200 2950 
z
M 3200 4966 
Q 2541 4966 2177 4747 
Q 1813 4528 1813 4159 
Q 1813 3791 2177 3572 
Q 2541 3353 3200 3353 
Q 3859 3353 4223 3572 
Q 4588 3791 4588 4159 
Q 4588 4528 4223 4747 
Q 3859 4966 3200 4966 
z
M 403 1919 
L 403 2344 
L 5997 2344 
L 5997 1919 
L 403 1919 
z
M 1338 -359 
L 1338 1331 
L 1813 1331 
L 1813 56 
L 5203 56 
L 5203 -359 
L 1338 -359 
z
" transform="scale(0.015625)"/>
      <path id="MalgunGothic-20" transform="scale(0.015625)"/>
      <path id="MalgunGothic-22" d="M 1013 4600 
L 916 3166 
L 566 3166 
L 469 4600 
L 1013 4600 
z
M 2059 4600 
L 1966 3166 
L 1619 3166 
L 1519 4600 
L 2059 4600 
z
" transform="scale(0.015625)"/>
      <path id="MalgunGothic-bc29" d="M 5125 3378 
L 5125 1900 
L 4659 1900 
L 4659 5466 
L 5125 5466 
L 5125 3794 
L 6034 3794 
L 6034 3378 
L 5125 3378 
z
M 756 2344 
L 756 5184 
L 1216 5184 
L 1216 4141 
L 3059 4141 
L 3059 5184 
L 3519 5184 
L 3519 2344 
L 756 2344 
z
M 3059 3731 
L 1216 3731 
L 1216 2753 
L 3059 2753 
L 3059 3731 
z
M 3263 -481 
Q 2319 -481 1809 -176 
Q 1300 128 1300 641 
Q 1300 1144 1808 1445 
Q 2316 1747 3263 1747 
Q 4213 1747 4720 1448 
Q 5228 1150 5228 641 
Q 5228 122 4717 -179 
Q 4206 -481 3263 -481 
z
M 3263 1344 
Q 2547 1344 2172 1159 
Q 1797 975 1797 641 
Q 1797 303 2176 112 
Q 2556 -78 3263 -78 
Q 3978 -78 4358 114 
Q 4738 306 4738 641 
Q 4738 972 4363 1158 
Q 3988 1344 3263 1344 
z
" transform="scale(0.015625)"/>
      <path id="MalgunGothic-d5a5" d="M 447 4325 
L 447 4744 
L 1997 4744 
L 1997 5497 
L 2463 5497 
L 2463 4744 
L 4013 4744 
L 4013 4325 
L 447 4325 
z
M 5125 2559 
L 5125 1678 
L 4659 1678 
L 4659 5466 
L 5125 5466 
L 5125 4281 
L 6034 4281 
L 6034 3878 
L 5125 3878 
L 5125 2969 
L 6034 2969 
L 6034 2559 
L 5125 2559 
z
M 2241 1966 
Q 1544 1966 1150 2252 
Q 756 2538 756 2994 
Q 756 3453 1154 3742 
Q 1553 4031 2247 4031 
Q 2941 4031 3339 3742 
Q 3738 3453 3738 2994 
Q 3738 2544 3339 2255 
Q 2941 1966 2241 1966 
z
M 2247 3634 
Q 1763 3634 1489 3456 
Q 1216 3278 1216 2994 
Q 1216 2713 1487 2538 
Q 1759 2363 2247 2363 
Q 2734 2363 3006 2538 
Q 3278 2713 3278 2994 
Q 3278 3278 3004 3456 
Q 2731 3634 2247 3634 
z
M 3263 -519 
Q 2306 -519 1803 -244 
Q 1300 31 1300 531 
Q 1300 1034 1803 1320 
Q 2306 1606 3263 1606 
Q 4222 1606 4725 1322 
Q 5228 1038 5228 531 
Q 5228 28 4723 -245 
Q 4219 -519 3263 -519 
z
M 3263 1209 
Q 1797 1209 1797 531 
Q 1797 -147 3263 -147 
Q 4738 -147 4738 531 
Q 4738 1209 3263 1209 
z
" transform="scale(0.015625)"/>
      <path id="MalgunGothic-c774" d="M 4947 -563 
L 4947 5466 
L 5416 5466 
L 5416 -563 
L 4947 -563 
z
M 2284 959 
Q 1597 959 1173 1514 
Q 750 2069 750 3016 
Q 750 3975 1169 4522 
Q 1588 5069 2284 5069 
Q 2978 5069 3403 4522 
Q 3828 3975 3828 3016 
Q 3828 2063 3401 1511 
Q 2975 959 2284 959 
z
M 2284 4653 
Q 1803 4653 1503 4204 
Q 1203 3756 1203 3016 
Q 1203 2278 1506 1826 
Q 1809 1375 2284 1375 
Q 2756 1375 3061 1828 
Q 3366 2281 3366 3016 
Q 3366 3759 3067 4206 
Q 2769 4653 2284 4653 
z
" transform="scale(0.015625)"/>
      <path id="MalgunGothic-c548" d="M 5131 3109 
L 5131 1069 
L 4666 1069 
L 4666 5466 
L 5131 5466 
L 5131 3534 
L 6041 3534 
L 6041 3109 
L 5131 3109 
z
M 2188 2188 
Q 1519 2188 1070 2611 
Q 622 3034 622 3706 
Q 622 4381 1067 4798 
Q 1513 5216 2188 5216 
Q 2866 5216 3308 4797 
Q 3750 4378 3750 3706 
Q 3750 3038 3304 2613 
Q 2859 2188 2188 2188 
z
M 2188 4819 
Q 1694 4819 1384 4516 
Q 1075 4213 1075 3706 
Q 1075 3200 1383 2895 
Q 1691 2591 2188 2591 
Q 2684 2591 2993 2895 
Q 3303 3200 3303 3706 
Q 3303 4213 2993 4516 
Q 2684 4819 2188 4819 
z
M 1381 -359 
L 1381 1619 
L 1856 1619 
L 1856 56 
L 5319 56 
L 5319 -359 
L 1381 -359 
z
" transform="scale(0.015625)"/>
      <path id="MalgunGothic-bc14" d="M 5094 2631 
L 5094 -563 
L 4628 -563 
L 4628 5466 
L 5094 5466 
L 5094 3047 
L 6138 3047 
L 6138 2631 
L 5094 2631 
z
M 788 1081 
L 788 5013 
L 1247 5013 
L 1247 3400 
L 3206 3400 
L 3206 5013 
L 3669 5013 
L 3669 1081 
L 788 1081 
z
M 3206 2988 
L 1247 2988 
L 1247 1497 
L 3206 1497 
L 3206 2988 
z
" transform="scale(0.015625)"/>
      <path id="MalgunGothic-b010" d="M 4978 928 
L 4978 5466 
L 5453 5466 
L 5453 928 
L 4978 928 
z
M 4581 2700 
Q 3966 2659 2847 2625 
L 2847 1063 
L 2388 1063 
L 2388 2606 
Q 1291 2566 647 2566 
L 581 3003 
L 1109 3003 
Q 1409 3003 1741 3009 
Q 1856 3700 1856 4691 
L 947 4691 
L 947 5100 
L 2309 5100 
L 2309 4781 
Q 2309 3878 2181 3016 
L 3506 3047 
Q 3566 3806 3566 4691 
L 2578 4691 
L 2578 5106 
L 4019 5106 
Q 4019 3734 3950 3066 
Q 4347 3088 4556 3103 
L 4581 2700 
z
M 1522 -319 
L 1522 1497 
L 1984 1497 
L 1984 97 
L 5600 97 
L 5600 -319 
L 1522 -319 
z
" transform="scale(0.015625)"/>
      <path id="MalgunGothic-b2e4" d="M 5094 2669 
L 5094 -563 
L 4628 -563 
L 4628 5466 
L 5094 5466 
L 5094 3091 
L 6156 3091 
L 6156 2669 
L 5094 2669 
z
M 4050 1234 
Q 3538 1172 3003 1159 
Q 2469 1147 838 1147 
L 838 4934 
L 3653 4934 
L 3653 4519 
L 1306 4519 
L 1306 1563 
Q 3566 1563 4013 1638 
L 4050 1234 
z
" transform="scale(0.015625)"/>
      <path id="MalgunGothic-bcf4" d="M 3438 2053 
L 3438 756 
L 5997 756 
L 5997 341 
L 403 341 
L 403 756 
L 2963 756 
L 2963 2053 
L 1306 2053 
L 1306 4947 
L 1772 4947 
L 1772 3903 
L 4628 3903 
L 4628 4947 
L 5088 4947 
L 5088 2053 
L 3438 2053 
z
M 4628 3481 
L 1772 3481 
L 1772 2478 
L 4628 2478 
L 4628 3481 
z
" transform="scale(0.015625)"/>
      <path id="MalgunGothic-ac19" d="M 5119 3525 
L 5119 2272 
L 4653 2272 
L 4653 5466 
L 5119 5466 
L 5119 3944 
L 6028 3944 
L 6028 3525 
L 5119 3525 
z
M 3488 5209 
Q 3488 4306 2794 3461 
Q 2100 2616 788 2081 
L 459 2450 
Q 1506 2784 2178 3450 
Q 2850 4116 2963 4794 
L 831 4794 
L 831 5209 
L 3488 5209 
z
M 1466 -422 
L 1466 1941 
L 5153 1941 
L 5153 1528 
L 1925 1528 
L 1925 972 
L 5044 972 
L 5044 563 
L 1925 563 
L 1925 -6 
L 5269 -6 
L 5269 -422 
L 1466 -422 
z
" transform="scale(0.015625)"/>
      <path id="MalgunGothic-c9c1" d="M 4934 1991 
L 4934 5466 
L 5409 5466 
L 5409 1991 
L 4934 1991 
z
M 3872 2297 
Q 3494 2472 3051 2890 
Q 2609 3309 2438 3653 
Q 2269 3266 1839 2820 
Q 1409 2375 972 2144 
L 641 2463 
Q 1319 2791 1761 3370 
Q 2203 3950 2203 4575 
L 2203 4781 
L 838 4781 
L 838 5197 
L 4006 5197 
L 4006 4781 
L 2656 4781 
L 2656 4575 
Q 2656 3981 3106 3450 
Q 3556 2919 4184 2650 
L 3872 2297 
z
M 4934 -563 
L 4934 1234 
L 1478 1234 
L 1478 1650 
L 5409 1650 
L 5409 -563 
L 4934 -563 
z
" transform="scale(0.015625)"/>
      <path id="MalgunGothic-c120" d="M 4878 1063 
L 4878 3653 
L 3469 3653 
L 3469 4072 
L 4878 4072 
L 4878 5466 
L 5344 5466 
L 5344 1063 
L 4878 1063 
z
M 3675 2069 
Q 3228 2344 2829 2776 
Q 2431 3209 2266 3566 
Q 2091 3150 1662 2648 
Q 1234 2147 819 1913 
L 481 2234 
Q 1125 2559 1573 3198 
Q 2022 3838 2022 4494 
L 2022 5269 
L 2478 5269 
L 2478 4494 
Q 2478 3894 2943 3286 
Q 3409 2678 3988 2406 
L 3675 2069 
z
M 1631 -366 
L 1631 1550 
L 2100 1550 
L 2100 44 
L 5503 44 
L 5503 -366 
L 1631 -366 
z
" transform="scale(0.015625)"/>
      <path id="MalgunGothic-c704" d="M 4997 -563 
L 4997 5466 
L 5466 5466 
L 5466 -563 
L 4997 -563 
z
M 2491 2784 
Q 1800 2784 1376 3140 
Q 953 3497 953 4038 
Q 953 4581 1376 4940 
Q 1800 5300 2491 5300 
Q 3178 5300 3598 4942 
Q 4019 4584 4019 4038 
Q 4019 3494 3600 3139 
Q 3181 2784 2491 2784 
z
M 2491 4897 
Q 2006 4897 1714 4659 
Q 1422 4422 1422 4038 
Q 1422 3653 1714 3420 
Q 2006 3188 2491 3188 
Q 2978 3188 3265 3422 
Q 3553 3656 3553 4038 
Q 3553 4419 3264 4658 
Q 2975 4897 2491 4897 
z
M 2297 -391 
L 2297 1825 
Q 903 1800 500 1800 
L 453 2209 
Q 3088 2209 4603 2297 
L 4628 1894 
Q 4203 1866 2766 1831 
L 2766 -391 
L 2297 -391 
z
" transform="scale(0.015625)"/>
      <path id="MalgunGothic-c5d0" d="M 5081 -563 
L 5081 5466 
L 5550 5466 
L 5550 -563 
L 5081 -563 
z
M 3278 2822 
Q 3244 1931 2903 1448 
Q 2563 966 1959 966 
Q 1325 966 983 1495 
Q 641 2025 641 3016 
Q 641 4006 986 4534 
Q 1331 5063 1959 5063 
Q 2559 5063 2898 4591 
Q 3238 4119 3272 3238 
L 4000 3238 
L 4000 5344 
L 4469 5344 
L 4469 -378 
L 4000 -378 
L 4000 2822 
L 3278 2822 
z
M 1959 4641 
Q 1538 4641 1316 4225 
Q 1094 3809 1094 3016 
Q 1094 2222 1316 1805 
Q 1538 1388 1959 1388 
Q 2378 1388 2600 1806 
Q 2822 2225 2822 3016 
Q 2822 3806 2600 4223 
Q 2378 4641 1959 4641 
z
" transform="scale(0.015625)"/>
      <path id="MalgunGothic-b0a8" d="M 5125 3578 
L 5125 2119 
L 4659 2119 
L 4659 5466 
L 5125 5466 
L 5125 4000 
L 6034 4000 
L 6034 3578 
L 5125 3578 
z
M 4263 2834 
Q 3741 2694 916 2694 
L 916 5222 
L 1381 5222 
L 1381 3109 
L 1794 3109 
Q 3553 3109 4206 3238 
L 4263 2834 
z
M 1466 -422 
L 1466 1784 
L 5125 1784 
L 5125 -422 
L 1466 -422 
z
M 4666 1369 
L 1925 1369 
L 1925 -6 
L 4666 -6 
L 4666 1369 
z
" transform="scale(0.015625)"/>
      <path id="MalgunGothic-b294" d="M 1409 3225 
L 1409 5247 
L 1875 5247 
L 1875 3641 
L 5172 3641 
L 5172 3225 
L 1409 3225 
z
M 403 1972 
L 403 2394 
L 5997 2394 
L 5997 1972 
L 403 1972 
z
M 1381 -331 
L 1381 1459 
L 1850 1459 
L 1850 91 
L 5184 91 
L 5184 -331 
L 1381 -331 
z
" transform="scale(0.015625)"/>
      <path id="MalgunGothic-2e" d="M 356 275 
Q 356 422 459 523 
Q 563 625 700 625 
Q 838 625 941 523 
Q 1044 422 1044 275 
Q 1044 138 942 33 
Q 841 -72 700 -72 
Q 559 -72 457 29 
Q 356 131 356 275 
z
" transform="scale(0.015625)"/>
     </defs>
     <use xlink:href="#MalgunGothic-d575"/>
     <use xlink:href="#MalgunGothic-c2ec" transform="translate(100 0)"/>
     <use xlink:href="#MalgunGothic-c740" transform="translate(200 0)"/>
     <use xlink:href="#MalgunGothic-20" transform="translate(300 0)"/>
     <use xlink:href="#MalgunGothic-22" transform="translate(335.15625 0)"/>
     <use xlink:href="#MalgunGothic-bc29" transform="translate(374.658203 0)"/>
     <use xlink:href="#MalgunGothic-d5a5" transform="translate(474.658203 0)"/>
     <use xlink:href="#MalgunGothic-c774" transform="translate(574.658203 0)"/>
     <use xlink:href="#MalgunGothic-20" transform="translate(674.658203 0)"/>
     <use xlink:href="#MalgunGothic-c548" transform="translate(709.814453 0)"/>
     <use xlink:href="#MalgunGothic-20" transform="translate(809.814453 0)"/>
     <use xlink:href="#MalgunGothic-bc14" transform="translate(844.970703 0)"/>
     <use xlink:href="#MalgunGothic-b010" transform="translate(944.970703 0)"/>
     <use xlink:href="#MalgunGothic-b2e4" transform="translate(1044.970703 0)"/>
     <use xlink:href="#MalgunGothic-22" transform="translate(1144.970703 0)"/>
     <use xlink:href="#MalgunGothic-bcf4" transform="translate(1184.472656 0)"/>
     <use xlink:href="#MalgunGothic-b2e4" transform="translate(1284.472656 0)"/>
     <use xlink:href="#MalgunGothic-20" transform="translate(1384.472656 0)"/>
     <use xlink:href="#MalgunGothic-22" transform="translate(1419.628906 0)"/>
     <use xlink:href="#MalgunGothic-ac19" transform="translate(1459.130859 0)"/>
     <use xlink:href="#MalgunGothic-c740" transform="translate(1559.130859 0)"/>
     <use xlink:href="#MalgunGothic-20" transform="translate(1659.130859 0)"/>
     <use xlink:href="#MalgunGothic-c9c1" transform="translate(1694.287109 0)"/>
     <use xlink:href="#MalgunGothic-c120" transform="translate(1794.287109 0)"/>
     <use xlink:href="#MalgunGothic-20" transform="translate(1894.287109 0)"/>
     <use xlink:href="#MalgunGothic-c704" transform="translate(1929.443359 0)"/>
     <use xlink:href="#MalgunGothic-c5d0" transform="translate(2029.443359 0)"/>
     <use xlink:href="#MalgunGothic-20" transform="translate(2129.443359 0)"/>
     <use xlink:href="#MalgunGothic-b0a8" transform="translate(2164.599609 0)"/>
     <use xlink:href="#MalgunGothic-b294" transform="translate(2264.599609 0)"/>
     <use xlink:href="#MalgunGothic-b2e4" transform="translate(2364.599609 0)"/>
     <use xlink:href="#MalgunGothic-22" transform="translate(2464.599609 0)"/>
     <use xlink:href="#MalgunGothic-c774" transform="translate(2504.101562 0)"/>
     <use xlink:href="#MalgunGothic-b2e4" transform="translate(2604.101562 0)"/>
     <use xlink:href="#MalgunGothic-2e" transform="translate(2704.101562 0)"/>
    </g>
   </g>
   <g id="text_4">
    <!-- 면접용 핵심 문장 -->
    <g style="fill: #8e3513" transform="translate(72 457.776) scale(0.135 -0.135)">
     <defs>
      <path id="MalgunGothicBold-ba74" d="M 750 2169 
L 750 5019 
L 3634 5019 
L 3634 4531 
L 4781 4531 
L 4781 5466 
L 5556 5466 
L 5556 1106 
L 4781 1106 
L 4781 2656 
L 3634 2656 
L 3634 2169 
L 750 2169 
z
M 2869 4359 
L 1516 4359 
L 1516 2828 
L 2869 2828 
L 2869 4359 
z
M 3634 3278 
L 4781 3278 
L 4781 3903 
L 3634 3903 
L 3634 3278 
z
M 1672 -353 
L 1672 1703 
L 2456 1703 
L 2456 306 
L 5678 306 
L 5678 -353 
L 1672 -353 
z
" transform="scale(0.015625)"/>
      <path id="MalgunGothicBold-c811" d="M 4788 2228 
L 4788 3519 
L 3653 3519 
L 3653 4147 
L 4788 4147 
L 4788 5466 
L 5556 5466 
L 5556 2228 
L 4788 2228 
z
M 3591 2259 
Q 2706 2700 2247 3359 
Q 2081 3019 1668 2628 
Q 1256 2238 884 2053 
L 325 2606 
Q 956 2844 1393 3367 
Q 1831 3891 1831 4447 
L 1831 4550 
L 588 4550 
L 588 5203 
L 3828 5203 
L 3828 4550 
L 2619 4550 
L 2619 4475 
Q 2619 3938 3025 3503 
Q 3431 3069 4091 2853 
L 3591 2259 
z
M 1663 -434 
L 1663 1972 
L 2431 1972 
L 2431 1356 
L 4788 1356 
L 4788 1972 
L 5550 1972 
L 5550 -434 
L 1663 -434 
z
M 4788 703 
L 2431 703 
L 2431 206 
L 4788 206 
L 4788 703 
z
" transform="scale(0.015625)"/>
      <path id="MalgunGothicBold-c6a9" d="M 1806 3322 
Q 1166 3628 1166 4225 
Q 1166 4766 1694 5067 
Q 2222 5369 3200 5369 
Q 4178 5369 4706 5067 
Q 5234 4766 5234 4225 
Q 5234 3619 4588 3322 
L 4588 2625 
L 5997 2625 
L 5997 1966 
L 403 1966 
L 403 2625 
L 1806 2625 
L 1806 3322 
z
M 3200 4769 
Q 2594 4769 2280 4623 
Q 1966 4478 1966 4225 
Q 1966 3969 2287 3825 
Q 2609 3681 3200 3681 
Q 4434 3681 4434 4225 
Q 4434 4478 4123 4623 
Q 3813 4769 3200 4769 
z
M 2584 2625 
L 3809 2625 
L 3809 3103 
Q 3528 3072 3200 3072 
Q 2866 3072 2584 3109 
L 2584 2625 
z
M 3200 -563 
Q 2213 -563 1683 -258 
Q 1153 47 1153 603 
Q 1153 1150 1684 1454 
Q 2216 1759 3200 1759 
Q 4194 1759 4720 1451 
Q 5247 1144 5247 603 
Q 5247 47 4717 -258 
Q 4188 -563 3200 -563 
z
M 3200 1113 
Q 1953 1113 1953 603 
Q 1953 363 2268 220 
Q 2584 78 3200 78 
Q 3816 78 4131 220 
Q 4447 363 4447 603 
Q 4447 1113 3200 1113 
z
" transform="scale(0.015625)"/>
      <path id="MalgunGothicBold-d575" d="M 366 4231 
L 366 4863 
L 1538 4863 
L 1538 5497 
L 2316 5497 
L 2316 4863 
L 3469 4863 
L 3469 4231 
L 366 4231 
z
M 4856 1800 
L 4856 3084 
L 4488 3084 
L 4488 1800 
L 3725 1800 
L 3725 5344 
L 4488 5344 
L 4488 3744 
L 4856 3744 
L 4856 5466 
L 5631 5466 
L 5631 1800 
L 4856 1800 
z
M 1931 1875 
Q 1300 1875 915 2167 
Q 531 2459 531 2956 
Q 531 3453 915 3745 
Q 1300 4038 1931 4038 
Q 2563 4038 2948 3744 
Q 3334 3450 3334 2956 
Q 3334 2456 2953 2165 
Q 2572 1875 1931 1875 
z
M 1931 3406 
Q 1641 3406 1464 3279 
Q 1288 3153 1288 2956 
Q 1288 2753 1458 2631 
Q 1628 2509 1931 2509 
Q 2225 2509 2401 2639 
Q 2578 2769 2578 2956 
Q 2578 3153 2403 3279 
Q 2228 3406 1931 3406 
z
M 4850 -563 
L 4850 878 
L 1569 878 
L 1569 1544 
L 5631 1544 
L 5631 -563 
L 4850 -563 
z
" transform="scale(0.015625)"/>
      <path id="MalgunGothicBold-c2ec" d="M 4703 2053 
L 4703 5466 
L 5472 5466 
L 5472 2053 
L 4703 2053 
z
M 3653 2209 
Q 2716 2656 2278 3353 
Q 2138 3056 1708 2634 
Q 1278 2213 934 2028 
L 366 2591 
Q 1038 2891 1453 3423 
Q 1869 3956 1869 4525 
L 1869 5275 
L 2656 5275 
L 2656 4550 
Q 2656 3978 3082 3497 
Q 3509 3016 4153 2834 
L 3653 2209 
z
M 1581 -434 
L 1581 1800 
L 5472 1800 
L 5472 -434 
L 1581 -434 
z
M 4709 1147 
L 2350 1147 
L 2350 219 
L 4709 219 
L 4709 1147 
z
" transform="scale(0.015625)"/>
      <path id="MalgunGothicBold-bb38" d="M 1247 3072 
L 1247 5222 
L 5153 5222 
L 5153 3072 
L 1247 3072 
z
M 4372 4569 
L 2028 4569 
L 2028 3725 
L 4372 3725 
L 4372 4569 
z
M 3653 1881 
L 3653 703 
L 2869 703 
L 2869 1881 
L 403 1881 
L 403 2541 
L 5997 2541 
L 5997 1881 
L 3653 1881 
z
M 1222 -353 
L 1222 1459 
L 2009 1459 
L 2009 306 
L 5253 306 
L 5253 -353 
L 1222 -353 
z
" transform="scale(0.015625)"/>
      <path id="MalgunGothicBold-c7a5" d="M 5259 3328 
L 5259 1947 
L 4475 1947 
L 4475 5466 
L 5259 5466 
L 5259 3988 
L 6175 3988 
L 6175 3328 
L 5259 3328 
z
M 3566 2113 
Q 2672 2556 2222 3213 
Q 2056 2869 1640 2476 
Q 1225 2084 856 1906 
L 300 2456 
Q 928 2694 1367 3217 
Q 1806 3741 1806 4300 
L 1806 4544 
L 563 4544 
L 563 5197 
L 3803 5197 
L 3803 4544 
L 2591 4544 
L 2591 4325 
Q 2591 3788 3002 3353 
Q 3413 2919 4063 2706 
L 3566 2113 
z
M 3347 -538 
Q 2388 -538 1863 -208 
Q 1338 122 1338 666 
Q 1338 1206 1869 1531 
Q 2400 1856 3347 1856 
Q 4297 1856 4826 1532 
Q 5356 1209 5356 666 
Q 5356 119 4829 -209 
Q 4303 -538 3347 -538 
z
M 3347 1203 
Q 2150 1203 2150 666 
Q 2150 116 3347 116 
Q 4550 116 4550 666 
Q 4550 1203 3347 1203 
z
" transform="scale(0.015625)"/>
     </defs>
     <use xlink:href="#MalgunGothicBold-ba74"/>
     <use xlink:href="#MalgunGothicBold-c811" transform="translate(100 0)"/>
     <use xlink:href="#MalgunGothicBold-c6a9" transform="translate(200 0)"/>
     <use xlink:href="#MalgunGothicBold-20" transform="translate(300 0)"/>
     <use xlink:href="#MalgunGothicBold-d575" transform="translate(335.15625 0)"/>
     <use xlink:href="#MalgunGothicBold-c2ec" transform="translate(435.15625 0)"/>
     <use xlink:href="#MalgunGothicBold-20" transform="translate(535.15625 0)"/>
     <use xlink:href="#MalgunGothicBold-bb38" transform="translate(570.3125 0)"/>
     <use xlink:href="#MalgunGothicBold-c7a5" transform="translate(670.3125 0)"/>
    </g>
   </g>
   <g id="text_5">
    <!-- 고유벡터는 변환 후에도 같은 직선 위에 남는 벡터이고, 고유값은 그때의 배율이다. -->
    <g style="fill: #675e57" transform="translate(180 457.776) scale(0.132 -0.132)">
     <defs>
      <path id="MalgunGothic-ace0" d="M 4959 1656 
L 4506 1697 
Q 4616 2694 4616 3534 
L 4616 4475 
L 1216 4475 
L 1216 4897 
L 5081 4897 
L 5081 3525 
Q 5081 2613 4959 1656 
z
M 403 513 
L 403 934 
L 2625 934 
L 2625 2900 
L 3091 2900 
L 3091 934 
L 5997 934 
L 5997 513 
L 403 513 
z
" transform="scale(0.015625)"/>
      <path id="MalgunGothic-c720" d="M 3200 2784 
Q 2278 2784 1768 3131 
Q 1259 3478 1259 4078 
Q 1259 4669 1775 5025 
Q 2291 5381 3200 5381 
Q 4128 5381 4640 5025 
Q 5153 4669 5153 4078 
Q 5153 3484 4640 3134 
Q 4128 2784 3200 2784 
z
M 3200 4978 
Q 2513 4978 2130 4736 
Q 1747 4494 1747 4078 
Q 1747 3669 2130 3425 
Q 2513 3181 3200 3181 
Q 3888 3181 4270 3425 
Q 4653 3669 4653 4078 
Q 4653 4494 4270 4736 
Q 3888 4978 3200 4978 
z
M 1913 -556 
L 1913 1672 
L 403 1672 
L 403 2094 
L 5997 2094 
L 5997 1672 
L 4488 1672 
L 4488 -556 
L 4019 -556 
L 4019 1672 
L 2381 1672 
L 2381 -556 
L 1913 -556 
z
" transform="scale(0.015625)"/>
      <path id="MalgunGothic-bca1" d="M 5056 1953 
L 5056 5466 
L 5522 5466 
L 5522 1953 
L 5056 1953 
z
M 763 2350 
L 763 5253 
L 1222 5253 
L 1222 4166 
L 2784 4166 
L 2784 5253 
L 3244 5253 
L 3244 3950 
L 4013 3950 
L 4013 5344 
L 4475 5344 
L 4475 1953 
L 4013 1953 
L 4013 3534 
L 3244 3534 
L 3244 2350 
L 763 2350 
z
M 2784 3750 
L 1222 3750 
L 1222 2759 
L 2784 2759 
L 2784 3750 
z
M 5056 -563 
L 5056 1203 
L 1581 1203 
L 1581 1619 
L 5522 1619 
L 5522 -563 
L 5056 -563 
z
" transform="scale(0.015625)"/>
      <path id="MalgunGothic-d130" d="M 4891 -563 
L 4891 2516 
L 3706 2516 
L 3706 2925 
L 4891 2925 
L 4891 5466 
L 5356 5466 
L 5356 -563 
L 4891 -563 
z
M 1422 2816 
L 1422 1331 
L 2144 1331 
Q 3525 1331 4141 1409 
L 4172 1006 
Q 3694 950 3141 936 
Q 2588 922 953 922 
L 953 4953 
L 3841 4953 
L 3841 4531 
L 1422 4531 
L 1422 3219 
L 3181 3219 
L 3181 2816 
L 1422 2816 
z
" transform="scale(0.015625)"/>
      <path id="MalgunGothic-bcc0" d="M 1038 2059 
L 1038 5184 
L 1497 5184 
L 1497 4072 
L 3366 4072 
L 3366 5184 
L 3828 5184 
L 3828 4416 
L 4947 4416 
L 4947 5466 
L 5416 5466 
L 5416 1063 
L 4947 1063 
L 4947 2669 
L 3828 2669 
L 3828 2059 
L 1038 2059 
z
M 3828 3084 
L 4947 3084 
L 4947 4000 
L 3828 4000 
L 3828 3084 
z
M 3366 3653 
L 1497 3653 
L 1497 2478 
L 3366 2478 
L 3366 3653 
z
M 1734 -391 
L 1734 1563 
L 2203 1563 
L 2203 25 
L 5606 25 
L 5606 -391 
L 1734 -391 
z
" transform="scale(0.015625)"/>
      <path id="MalgunGothic-d658" d="M 5216 2663 
L 5216 838 
L 4750 838 
L 4750 5466 
L 5216 5466 
L 5216 3078 
L 6119 3078 
L 6119 2663 
L 5216 2663 
z
M 609 4378 
L 609 4788 
L 2156 4788 
L 2156 5453 
L 2619 5453 
L 2619 4788 
L 4159 4788 
L 4159 4378 
L 609 4378 
z
M 4347 1491 
Q 2450 1381 469 1381 
L 422 1791 
Q 1059 1791 2150 1819 
L 2150 2272 
Q 1544 2316 1214 2570 
Q 884 2825 884 3200 
Q 884 3625 1284 3883 
Q 1684 4141 2381 4141 
Q 3069 4141 3473 3870 
Q 3878 3600 3878 3200 
Q 3878 2825 3550 2570 
Q 3222 2316 2613 2272 
L 2613 1825 
Q 3663 1850 4319 1894 
L 4347 1491 
z
M 2381 3763 
Q 1897 3763 1620 3603 
Q 1344 3444 1344 3200 
Q 1344 2956 1623 2800 
Q 1903 2644 2381 2644 
Q 2859 2644 3139 2800 
Q 3419 2956 3419 3200 
Q 3419 3444 3142 3603 
Q 2866 3763 2381 3763 
z
M 1409 -488 
L 1409 1056 
L 1869 1056 
L 1869 -78 
L 5356 -78 
L 5356 -488 
L 1409 -488 
z
" transform="scale(0.015625)"/>
      <path id="MalgunGothic-d6c4" d="M 928 4397 
L 928 4800 
L 2963 4800 
L 2963 5459 
L 3438 5459 
L 3438 4800 
L 5472 4800 
L 5472 4397 
L 928 4397 
z
M 3200 2075 
Q 2234 2075 1743 2340 
Q 1253 2606 1253 3066 
Q 1253 3528 1753 3795 
Q 2253 4063 3200 4063 
Q 4144 4063 4642 3795 
Q 5141 3528 5141 3066 
Q 5141 2606 4650 2340 
Q 4159 2075 3200 2075 
z
M 3194 3675 
Q 2484 3675 2112 3503 
Q 1741 3331 1741 3066 
Q 1741 2797 2114 2630 
Q 2488 2463 3194 2463 
Q 3900 2463 4276 2628 
Q 4653 2794 4653 3066 
Q 4653 3334 4276 3504 
Q 3900 3675 3194 3675 
z
M 3438 1209 
L 3438 -563 
L 2963 -563 
L 2963 1209 
L 403 1209 
L 403 1625 
L 5997 1625 
L 5997 1209 
L 3438 1209 
z
" transform="scale(0.015625)"/>
      <path id="MalgunGothic-b3c4" d="M 403 372 
L 403 788 
L 2963 788 
L 2963 2181 
L 1350 2181 
L 1350 4897 
L 5050 4897 
L 5050 4481 
L 1819 4481 
L 1819 2600 
L 5147 2600 
L 5147 2181 
L 3438 2181 
L 3438 788 
L 5997 788 
L 5997 372 
L 403 372 
z
" transform="scale(0.015625)"/>
      <path id="MalgunGothic-2c" d="M 988 725 
L 472 -850 
L 125 -850 
L 503 725 
L 988 725 
z
" transform="scale(0.015625)"/>
      <path id="MalgunGothic-ac12" d="M 5119 3584 
L 5119 2375 
L 4653 2375 
L 4653 5466 
L 5119 5466 
L 5119 4000 
L 6028 4000 
L 6028 3584 
L 5119 3584 
z
M 3488 5203 
Q 3488 4372 2816 3540 
Q 2144 2709 781 2181 
L 459 2572 
Q 1553 2903 2193 3515 
Q 2834 4128 2963 4794 
L 831 4794 
L 831 5203 
L 3488 5203 
z
M 5575 -447 
Q 5266 -256 4970 84 
Q 4675 425 4575 709 
Q 4456 397 4148 50 
Q 3841 -297 3541 -447 
L 3250 -134 
Q 3756 109 4061 581 
Q 4366 1053 4366 1606 
L 4366 2022 
L 4788 2022 
L 4788 1606 
Q 4788 1066 5089 586 
Q 5391 106 5881 -134 
L 5575 -447 
z
M 1216 -441 
L 1216 1984 
L 1656 1984 
L 1656 1088 
L 2700 1088 
L 2700 1984 
L 3144 1984 
L 3144 -441 
L 1216 -441 
z
M 2700 703 
L 1656 703 
L 1656 -50 
L 2700 -50 
L 2700 703 
z
" transform="scale(0.015625)"/>
      <path id="MalgunGothic-adf8" d="M 403 622 
L 403 1038 
L 4434 1038 
Q 4563 1981 4563 3053 
L 4563 4481 
L 1253 4481 
L 1253 4897 
L 5031 4897 
L 5031 3238 
Q 5031 2322 4891 1038 
L 5997 1038 
L 5997 622 
L 403 622 
z
" transform="scale(0.015625)"/>
      <path id="MalgunGothic-b54c" d="M 5125 -563 
L 5125 2619 
L 4475 2619 
L 4475 -378 
L 4006 -378 
L 4006 5344 
L 4475 5344 
L 4475 3028 
L 5125 3028 
L 5125 5466 
L 5594 5466 
L 5594 -563 
L 5125 -563 
z
M 2350 1063 
L 2350 5063 
L 3584 5063 
L 3584 4653 
L 2803 4653 
L 2803 1472 
Q 3419 1472 3738 1550 
L 3794 1153 
Q 3416 1063 2350 1063 
z
M 738 1063 
L 738 5063 
L 1997 5063 
L 1997 4653 
L 1197 4653 
L 1197 1472 
Q 1797 1472 2125 1550 
L 2169 1153 
Q 1791 1063 738 1063 
z
" transform="scale(0.015625)"/>
      <path id="MalgunGothic-c758" d="M 5013 -563 
L 5013 5466 
L 5478 5466 
L 5478 -563 
L 5013 -563 
z
M 2450 2131 
Q 1775 2131 1315 2540 
Q 856 2950 856 3572 
Q 856 4181 1312 4593 
Q 1769 5006 2450 5006 
Q 3128 5006 3586 4590 
Q 4044 4175 4044 3572 
Q 4044 2947 3587 2539 
Q 3131 2131 2450 2131 
z
M 2450 4594 
Q 1975 4594 1656 4306 
Q 1338 4019 1338 3572 
Q 1338 3119 1664 2833 
Q 1991 2547 2450 2547 
Q 2922 2547 3244 2833 
Q 3566 3119 3566 3572 
Q 3566 4025 3247 4309 
Q 2928 4594 2450 4594 
z
M 459 531 
L 416 934 
Q 1222 934 2667 965 
Q 4113 997 4588 1038 
L 4616 634 
Q 4125 594 2679 562 
Q 1234 531 459 531 
z
" transform="scale(0.015625)"/>
      <path id="MalgunGothic-bc30" d="M 5069 -563 
L 5069 2584 
L 4319 2584 
L 4319 -378 
L 3859 -378 
L 3859 5344 
L 4319 5344 
L 4319 3003 
L 5069 3003 
L 5069 5466 
L 5538 5466 
L 5538 -563 
L 5069 -563 
z
M 763 1069 
L 763 5031 
L 1222 5031 
L 1222 3419 
L 2725 3419 
L 2725 5031 
L 3194 5031 
L 3194 1069 
L 763 1069 
z
M 2725 3009 
L 1222 3009 
L 1222 1478 
L 2725 1478 
L 2725 3009 
z
" transform="scale(0.015625)"/>
      <path id="MalgunGothic-c728" d="M 3200 3316 
Q 2269 3316 1769 3605 
Q 1269 3894 1269 4378 
Q 1269 4859 1770 5150 
Q 2272 5441 3200 5441 
Q 4138 5441 4634 5155 
Q 5131 4869 5131 4378 
Q 5131 3891 4632 3603 
Q 4134 3316 3200 3316 
z
M 3200 5069 
Q 2503 5069 2128 4878 
Q 1753 4688 1753 4378 
Q 1753 4063 2131 3872 
Q 2509 3681 3200 3681 
Q 3884 3681 4265 3875 
Q 4647 4069 4647 4378 
Q 4647 4681 4267 4875 
Q 3888 5069 3200 5069 
z
M 1306 -500 
L 1306 844 
L 4628 844 
L 4628 1403 
L 1306 1403 
L 1306 1784 
L 2009 1784 
L 2009 2425 
L 403 2425 
L 403 2816 
L 5997 2816 
L 5997 2425 
L 4391 2425 
L 4391 1784 
L 5088 1784 
L 5088 475 
L 1766 475 
L 1766 -109 
L 5247 -109 
L 5247 -500 
L 1306 -500 
z
M 3928 1784 
L 3928 2425 
L 2472 2425 
L 2472 1784 
L 3928 1784 
z
" transform="scale(0.015625)"/>
     </defs>
     <use xlink:href="#MalgunGothic-ace0"/>
     <use xlink:href="#MalgunGothic-c720" transform="translate(100 0)"/>
     <use xlink:href="#MalgunGothic-bca1" transform="translate(200 0)"/>
     <use xlink:href="#MalgunGothic-d130" transform="translate(300 0)"/>
     <use xlink:href="#MalgunGothic-b294" transform="translate(400 0)"/>
     <use xlink:href="#MalgunGothic-20" transform="translate(500 0)"/>
     <use xlink:href="#MalgunGothic-bcc0" transform="translate(535.15625 0)"/>
     <use xlink:href="#MalgunGothic-d658" transform="translate(635.15625 0)"/>
     <use xlink:href="#MalgunGothic-20" transform="translate(735.15625 0)"/>
     <use xlink:href="#MalgunGothic-d6c4" transform="translate(770.3125 0)"/>
     <use xlink:href="#MalgunGothic-c5d0" transform="translate(870.3125 0)"/>
     <use xlink:href="#MalgunGothic-b3c4" transform="translate(970.3125 0)"/>
     <use xlink:href="#MalgunGothic-20" transform="translate(1070.3125 0)"/>
     <use xlink:href="#MalgunGothic-ac19" transform="translate(1105.46875 0)"/>
     <use xlink:href="#MalgunGothic-c740" transform="translate(1205.46875 0)"/>
     <use xlink:href="#MalgunGothic-20" transform="translate(1305.46875 0)"/>
     <use xlink:href="#MalgunGothic-c9c1" transform="translate(1340.625 0)"/>
     <use xlink:href="#MalgunGothic-c120" transform="translate(1440.625 0)"/>
     <use xlink:href="#MalgunGothic-20" transform="translate(1540.625 0)"/>
     <use xlink:href="#MalgunGothic-c704" transform="translate(1575.78125 0)"/>
     <use xlink:href="#MalgunGothic-c5d0" transform="translate(1675.78125 0)"/>
     <use xlink:href="#MalgunGothic-20" transform="translate(1775.78125 0)"/>
     <use xlink:href="#MalgunGothic-b0a8" transform="translate(1810.9375 0)"/>
     <use xlink:href="#MalgunGothic-b294" transform="translate(1910.9375 0)"/>
     <use xlink:href="#MalgunGothic-20" transform="translate(2010.9375 0)"/>
     <use xlink:href="#MalgunGothic-bca1" transform="translate(2046.09375 0)"/>
     <use xlink:href="#MalgunGothic-d130" transform="translate(2146.09375 0)"/>
     <use xlink:href="#MalgunGothic-c774" transform="translate(2246.09375 0)"/>
     <use xlink:href="#MalgunGothic-ace0" transform="translate(2346.09375 0)"/>
     <use xlink:href="#MalgunGothic-2c" transform="translate(2446.09375 0)"/>
     <use xlink:href="#MalgunGothic-20" transform="translate(2467.96875 0)"/>
     <use xlink:href="#MalgunGothic-ace0" transform="translate(2503.125 0)"/>
     <use xlink:href="#MalgunGothic-c720" transform="translate(2603.125 0)"/>
     <use xlink:href="#MalgunGothic-ac12" transform="translate(2703.125 0)"/>
     <use xlink:href="#MalgunGothic-c740" transform="translate(2803.125 0)"/>
     <use xlink:href="#MalgunGothic-20" transform="translate(2903.125 0)"/>
     <use xlink:href="#MalgunGothic-adf8" transform="translate(2938.28125 0)"/>
     <use xlink:href="#MalgunGothic-b54c" transform="translate(3038.28125 0)"/>
     <use xlink:href="#MalgunGothic-c758" transform="translate(3138.28125 0)"/>
     <use xlink:href="#MalgunGothic-20" transform="translate(3238.28125 0)"/>
     <use xlink:href="#MalgunGothic-bc30" transform="translate(3273.4375 0)"/>
     <use xlink:href="#MalgunGothic-c728" transform="translate(3373.4375 0)"/>
     <use xlink:href="#MalgunGothic-c774" transform="translate(3473.4375 0)"/>
     <use xlink:href="#MalgunGothic-b2e4" transform="translate(3573.4375 0)"/>
     <use xlink:href="#MalgunGothic-2e" transform="translate(3673.4375 0)"/>
    </g>
   </g>
  </g>
  <g id="axes_2">
   <g id="patch_4">
    <path d="M 85.27104 398.18304 
L 387.04896 398.18304 
Q 399.83616 398.18304 399.83616 388.50624 
L 399.83616 160.13376 
Q 399.83616 150.45696 387.04896 150.45696 
L 85.27104 150.45696 
Q 72.48384 150.45696 72.48384 160.13376 
L 72.48384 388.50624 
Q 72.48384 398.18304 85.27104 398.18304 
z
" style="fill: #fbf1e4; stroke: #e4d2bf; stroke-width: 1.4; stroke-linejoin: miter"/>
   </g>
   <g id="text_6">
    <!-- 일반 벡터 -->
    <g style="fill: #2f5d56" transform="translate(95.5008 177.552) scale(0.18 -0.18)">
     <defs>
      <path id="MalgunGothicBold-c77c" d="M 4697 2413 
L 4697 5466 
L 5466 5466 
L 5466 2413 
L 4697 2413 
z
M 2163 2497 
Q 1459 2497 1023 2894 
Q 588 3291 588 3922 
Q 588 4559 1025 4957 
Q 1463 5356 2163 5356 
Q 2875 5356 3312 4953 
Q 3750 4550 3750 3922 
Q 3750 3297 3311 2897 
Q 2872 2497 2163 2497 
z
M 2163 4703 
Q 1775 4703 1565 4497 
Q 1356 4291 1356 3922 
Q 1356 3572 1573 3355 
Q 1791 3138 2163 3138 
Q 2531 3138 2750 3352 
Q 2969 3566 2969 3922 
Q 2969 4266 2750 4484 
Q 2531 4703 2163 4703 
z
M 1569 -475 
L 1569 1159 
L 4697 1159 
L 4697 1516 
L 1569 1516 
L 1569 2175 
L 5466 2175 
L 5466 569 
L 2344 569 
L 2344 184 
L 5619 184 
L 5619 -475 
L 1569 -475 
z
" transform="scale(0.015625)"/>
      <path id="MalgunGothicBold-bc18" d="M 5253 3016 
L 5253 1125 
L 4475 1125 
L 4475 5466 
L 5253 5466 
L 5253 3675 
L 6175 3675 
L 6175 3016 
L 5253 3016 
z
M 653 2188 
L 653 5147 
L 1434 5147 
L 1434 4263 
L 2766 4263 
L 2766 5147 
L 3541 5147 
L 3541 2188 
L 653 2188 
z
M 2766 3603 
L 1434 3603 
L 1434 2841 
L 2766 2841 
L 2766 3603 
z
M 1484 -353 
L 1484 1703 
L 2272 1703 
L 2272 306 
L 5422 306 
L 5422 -353 
L 1484 -353 
z
" transform="scale(0.015625)"/>
     </defs>
     <use xlink:href="#MalgunGothicBold-c77c"/>
     <use xlink:href="#MalgunGothicBold-bc18" transform="translate(100 0)"/>
     <use xlink:href="#MalgunGothicBold-20" transform="translate(200 0)"/>
     <use xlink:href="#MalgunGothicBold-bca1" transform="translate(235.15625 0)"/>
     <use xlink:href="#MalgunGothicBold-d130" transform="translate(335.15625 0)"/>
    </g>
   </g>
   <g id="text_7">
    <!-- 행렬을 곱하면 방향과 크기가 함께 바뀜 -->
    <g style="fill: #675e57" transform="translate(95.5008 196.9056) scale(0.125 -0.125)">
     <defs>
      <path id="MalgunGothic-d589" d="M 5075 1772 
L 5075 3231 
L 4372 3231 
L 4372 1947 
L 3909 1947 
L 3909 5344 
L 4372 5344 
L 4372 3641 
L 5075 3641 
L 5075 5466 
L 5538 5466 
L 5538 1772 
L 5075 1772 
z
M 459 4275 
L 459 4684 
L 1784 4684 
L 1784 5416 
L 2247 5416 
L 2247 4684 
L 3559 4684 
L 3559 4275 
L 459 4275 
z
M 2022 1997 
Q 1431 1997 1070 2284 
Q 709 2572 709 3003 
Q 709 3438 1071 3722 
Q 1434 4006 2022 4006 
Q 2609 4006 2971 3722 
Q 3334 3438 3334 3003 
Q 3334 2569 2976 2283 
Q 2619 1997 2022 1997 
z
M 2022 3622 
Q 1656 3622 1404 3448 
Q 1153 3275 1153 3003 
Q 1153 2738 1406 2563 
Q 1659 2388 2022 2388 
Q 2391 2388 2645 2563 
Q 2900 2738 2900 3003 
Q 2900 3275 2644 3448 
Q 2388 3622 2022 3622 
z
M 3547 -513 
Q 2556 -513 2036 -227 
Q 1516 59 1516 569 
Q 1516 1084 2037 1367 
Q 2559 1650 3547 1650 
Q 4534 1650 5054 1364 
Q 5575 1078 5575 569 
Q 5575 63 5056 -225 
Q 4538 -513 3547 -513 
z
M 3547 1253 
Q 2016 1253 2016 569 
Q 2016 -116 3547 -116 
Q 5081 -116 5081 569 
Q 5081 1253 3547 1253 
z
" transform="scale(0.015625)"/>
      <path id="MalgunGothic-b82c" d="M 3834 3309 
L 3834 3713 
L 4947 3713 
L 4947 4288 
L 3847 4288 
L 3847 4684 
L 4947 4684 
L 4947 5466 
L 5416 5466 
L 5416 2400 
L 4947 2400 
L 4947 3309 
L 3834 3309 
z
M 3700 2725 
Q 3238 2650 2800 2631 
Q 2363 2613 991 2613 
L 991 4213 
L 3016 4213 
L 3016 4838 
L 991 4838 
L 991 5241 
L 3475 5241 
L 3475 3809 
L 1453 3809 
L 1453 3022 
Q 3122 3022 3634 3122 
L 3700 2725 
z
M 1703 -422 
L 1703 1050 
L 4953 1050 
L 4953 1650 
L 1703 1650 
L 1703 2069 
L 5416 2069 
L 5416 647 
L 2163 647 
L 2163 -6 
L 5581 -6 
L 5581 -422 
L 1703 -422 
z
" transform="scale(0.015625)"/>
      <path id="MalgunGothic-c744" d="M 3200 3316 
Q 2269 3316 1769 3605 
Q 1269 3894 1269 4378 
Q 1269 4859 1770 5150 
Q 2272 5441 3200 5441 
Q 4138 5441 4634 5155 
Q 5131 4869 5131 4378 
Q 5131 3891 4632 3603 
Q 4134 3316 3200 3316 
z
M 3200 5069 
Q 2503 5069 2128 4878 
Q 1753 4688 1753 4378 
Q 1753 4063 2131 3872 
Q 2509 3681 3200 3681 
Q 3884 3681 4265 3875 
Q 4647 4069 4647 4378 
Q 4647 4681 4267 4875 
Q 3888 5069 3200 5069 
z
M 403 2419 
L 403 2803 
L 5997 2803 
L 5997 2419 
L 403 2419 
z
M 1306 -500 
L 1306 878 
L 4628 878 
L 4628 1466 
L 1306 1466 
L 1306 1856 
L 5088 1856 
L 5088 513 
L 1766 513 
L 1766 -109 
L 5247 -109 
L 5247 -500 
L 1306 -500 
z
" transform="scale(0.015625)"/>
      <path id="MalgunGothic-acf1" d="M 5166 5300 
Q 5166 4075 5088 3413 
L 4641 3438 
Q 4703 4041 4703 4891 
L 1369 4891 
L 1369 5300 
L 5166 5300 
z
M 403 2578 
L 403 2994 
L 2778 2994 
L 2778 4134 
L 3238 4134 
L 3238 2994 
L 5997 2994 
L 5997 2578 
L 403 2578 
z
M 1331 -397 
L 1331 1984 
L 1791 1984 
L 1791 1197 
L 4609 1197 
L 4609 1984 
L 5069 1984 
L 5069 -397 
L 1331 -397 
z
M 4609 788 
L 1791 788 
L 1791 13 
L 4609 13 
L 4609 788 
z
" transform="scale(0.015625)"/>
      <path id="MalgunGothic-d558" d="M 5094 2278 
L 5094 -563 
L 4628 -563 
L 4628 5466 
L 5094 5466 
L 5094 2694 
L 6113 2694 
L 6113 2278 
L 5094 2278 
z
M 469 4084 
L 469 4506 
L 2022 4506 
L 2022 5466 
L 2491 5466 
L 2491 4506 
L 4050 4506 
L 4050 4084 
L 469 4084 
z
M 2253 934 
Q 1588 934 1166 1318 
Q 744 1703 744 2272 
Q 744 2850 1166 3233 
Q 1588 3616 2259 3616 
Q 2928 3616 3351 3231 
Q 3775 2847 3775 2266 
Q 3775 1694 3351 1314 
Q 2928 934 2253 934 
z
M 2259 3219 
Q 1797 3219 1500 2941 
Q 1203 2663 1203 2272 
Q 1203 1884 1501 1607 
Q 1800 1331 2259 1331 
Q 2719 1331 3017 1607 
Q 3316 1884 3316 2272 
Q 3316 2663 3019 2941 
Q 2722 3219 2259 3219 
z
" transform="scale(0.015625)"/>
      <path id="MalgunGothic-ba74" d="M 4953 1063 
L 4953 2753 
L 3750 2753 
L 3750 2163 
L 984 2163 
L 984 5125 
L 3750 5125 
L 3750 4531 
L 4953 4531 
L 4953 5466 
L 5422 5466 
L 5422 1063 
L 4953 1063 
z
M 3284 4709 
L 1453 4709 
L 1453 2578 
L 3284 2578 
L 3284 4709 
z
M 4953 4128 
L 3750 4128 
L 3750 3156 
L 4953 3156 
L 4953 4128 
z
M 1734 -391 
L 1734 1509 
L 2203 1509 
L 2203 25 
L 5606 25 
L 5606 -391 
L 1734 -391 
z
" transform="scale(0.015625)"/>
      <path id="MalgunGothic-acfc" d="M 6188 2663 
L 5203 2663 
L 5203 -563 
L 4728 -563 
L 4728 5466 
L 5197 5466 
L 5197 3078 
L 6188 3078 
L 6188 2663 
z
M 3828 4897 
Q 3828 3144 3713 1800 
L 3256 1831 
Q 3294 2163 3326 3077 
Q 3359 3991 3359 4481 
L 800 4481 
L 800 4897 
L 3828 4897 
z
M 4319 666 
Q 2688 575 281 575 
L 238 984 
Q 559 984 1747 1000 
L 1747 3084 
L 2216 3084 
L 2216 1006 
L 4288 1069 
L 4319 666 
z
" transform="scale(0.015625)"/>
      <path id="MalgunGothic-d06c" d="M 403 550 
L 403 966 
L 4494 966 
Q 4584 1969 4609 2791 
L 972 2600 
L 872 3059 
L 4616 3188 
L 4616 4475 
L 1178 4475 
L 1178 4891 
L 5075 4891 
L 5075 3138 
Q 5075 2347 4947 966 
L 5997 966 
L 5997 550 
L 403 550 
z
" transform="scale(0.015625)"/>
      <path id="MalgunGothic-ae30" d="M 4884 -563 
L 4884 5466 
L 5350 5466 
L 5350 -563 
L 4884 -563 
z
M 3675 4909 
Q 3653 3656 2956 2611 
Q 2259 1566 959 844 
L 603 1222 
Q 1559 1619 2293 2478 
Q 3028 3338 3175 4494 
L 850 4494 
L 850 4909 
L 3675 4909 
z
" transform="scale(0.015625)"/>
      <path id="MalgunGothic-ac00" d="M 5094 2566 
L 5094 -563 
L 4628 -563 
L 4628 5466 
L 5094 5466 
L 5094 2981 
L 6175 2981 
L 6175 2566 
L 5094 2566 
z
M 3609 4928 
Q 3541 2363 897 863 
L 538 1241 
Q 1484 1631 2234 2506 
Q 2984 3381 3109 4513 
L 794 4513 
L 794 4928 
L 3609 4928 
z
" transform="scale(0.015625)"/>
      <path id="MalgunGothic-d568" d="M 447 4306 
L 447 4716 
L 1997 4716 
L 1997 5497 
L 2463 5497 
L 2463 4716 
L 4013 4716 
L 4013 4306 
L 447 4306 
z
M 5125 3150 
L 5125 1869 
L 4659 1869 
L 4659 5466 
L 5125 5466 
L 5125 3572 
L 6034 3572 
L 6034 3150 
L 5125 3150 
z
M 2241 1966 
Q 1544 1966 1150 2252 
Q 756 2538 756 2994 
Q 756 3453 1154 3742 
Q 1553 4031 2247 4031 
Q 2941 4031 3339 3742 
Q 3738 3453 3738 2994 
Q 3738 2544 3339 2255 
Q 2941 1966 2241 1966 
z
M 2247 3634 
Q 1763 3634 1489 3456 
Q 1216 3278 1216 2994 
Q 1216 2713 1487 2538 
Q 1759 2363 2247 2363 
Q 2734 2363 3006 2538 
Q 3278 2713 3278 2994 
Q 3278 3278 3004 3456 
Q 2731 3634 2247 3634 
z
M 1428 -453 
L 1428 1538 
L 5125 1538 
L 5125 -453 
L 1428 -453 
z
M 4666 1125 
L 1888 1125 
L 1888 -38 
L 4666 -38 
L 4666 1125 
z
" transform="scale(0.015625)"/>
      <path id="MalgunGothic-aed8" d="M 5159 -563 
L 5159 5466 
L 5619 5466 
L 5619 -563 
L 5159 -563 
z
M 3378 4691 
Q 3378 3903 3278 3263 
L 4072 3263 
L 4072 5344 
L 4525 5344 
L 4525 -466 
L 4072 -466 
L 4072 2847 
L 3200 2847 
Q 2922 1572 2131 628 
L 1728 903 
Q 2309 1484 2620 2426 
Q 2931 3369 2931 4519 
L 2131 4519 
L 2131 4928 
L 3378 4928 
L 3378 4691 
z
M 1959 4738 
Q 1959 2597 691 1203 
L 294 1466 
Q 878 2031 1193 2837 
Q 1509 3644 1509 4519 
L 678 4519 
L 678 4928 
L 1959 4928 
L 1959 4738 
z
" transform="scale(0.015625)"/>
      <path id="MalgunGothic-b01c" d="M 4978 2075 
L 4978 5466 
L 5453 5466 
L 5453 2075 
L 4978 2075 
z
M 1600 -353 
L 1600 1741 
L 2216 1741 
L 2216 2834 
Q 1431 2797 647 2797 
L 581 3231 
L 1103 3231 
Q 1400 3231 1728 3238 
Q 1856 3903 1856 4781 
L 947 4781 
L 947 5191 
L 2309 5191 
L 2309 4863 
Q 2309 4031 2169 3250 
L 3469 3284 
Q 3531 4053 3531 4781 
L 2578 4781 
L 2578 5191 
L 3988 5191 
Q 3988 3884 3909 3297 
Q 4309 3319 4494 3334 
L 4519 2931 
Q 3959 2894 2675 2859 
L 2675 1741 
L 5453 1741 
L 5453 -353 
L 1600 -353 
z
M 4991 1331 
L 2059 1331 
L 2059 56 
L 4991 56 
L 4991 1331 
z
" transform="scale(0.015625)"/>
     </defs>
     <use xlink:href="#MalgunGothic-d589"/>
     <use xlink:href="#MalgunGothic-b82c" transform="translate(100 0)"/>
     <use xlink:href="#MalgunGothic-c744" transform="translate(200 0)"/>
     <use xlink:href="#MalgunGothic-20" transform="translate(300 0)"/>
     <use xlink:href="#MalgunGothic-acf1" transform="translate(335.15625 0)"/>
     <use xlink:href="#MalgunGothic-d558" transform="translate(435.15625 0)"/>
     <use xlink:href="#MalgunGothic-ba74" transform="translate(535.15625 0)"/>
     <use xlink:href="#MalgunGothic-20" transform="translate(635.15625 0)"/>
     <use xlink:href="#MalgunGothic-bc29" transform="translate(670.3125 0)"/>
     <use xlink:href="#MalgunGothic-d5a5" transform="translate(770.3125 0)"/>
     <use xlink:href="#MalgunGothic-acfc" transform="translate(870.3125 0)"/>
     <use xlink:href="#MalgunGothic-20" transform="translate(970.3125 0)"/>
     <use xlink:href="#MalgunGothic-d06c" transform="translate(1005.46875 0)"/>
     <use xlink:href="#MalgunGothic-ae30" transform="translate(1105.46875 0)"/>
     <use xlink:href="#MalgunGothic-ac00" transform="translate(1205.46875 0)"/>
     <use xlink:href="#MalgunGothic-20" transform="translate(1305.46875 0)"/>
     <use xlink:href="#MalgunGothic-d568" transform="translate(1340.625 0)"/>
     <use xlink:href="#MalgunGothic-aed8" transform="translate(1440.625 0)"/>
     <use xlink:href="#MalgunGothic-20" transform="translate(1540.625 0)"/>
     <use xlink:href="#MalgunGothic-bc14" transform="translate(1575.78125 0)"/>
     <use xlink:href="#MalgunGothic-b01c" transform="translate(1675.78125 0)"/>
    </g>
   </g>
   <g id="text_8">
    <!-- 핵심 -->
    <g style="fill: #8e3513" transform="translate(95.5008 366.2496) scale(0.125 -0.125)">
     <use xlink:href="#MalgunGothicBold-d575"/>
     <use xlink:href="#MalgunGothicBold-c2ec" transform="translate(100 0)"/>
    </g>
   </g>
   <g id="text_9">
    <!-- x와 Ax가 서로 다른 직선 위에 있다. -->
    <g style="fill: #675e57" transform="translate(127.4688 366.2496) scale(0.125 -0.125)">
     <defs>
      <path id="MalgunGothic-78" d="M 2884 3284 
L 1784 1616 
L 2869 0 
L 2288 0 
L 1634 1078 
Q 1563 1197 1491 1325 
L 1475 1325 
Q 1456 1284 1328 1078 
L 656 0 
L 88 0 
L 1209 1606 
L 134 3284 
L 713 3284 
L 1494 1897 
L 1506 1897 
Q 1525 1925 1641 2119 
L 2344 3284 
L 2884 3284 
z
" transform="scale(0.015625)"/>
      <path id="MalgunGothic-c640" d="M 5203 2600 
L 5203 -563 
L 4738 -563 
L 4738 5466 
L 5203 5466 
L 5203 3016 
L 6188 3016 
L 6188 2600 
L 5203 2600 
z
M 2572 2138 
L 2572 959 
Q 3872 991 4353 1025 
L 4378 622 
Q 3956 588 2537 553 
Q 1119 519 378 519 
L 325 934 
Q 1281 934 2106 953 
L 2106 2131 
Q 1466 2203 1094 2601 
Q 722 3000 722 3572 
Q 722 4213 1187 4616 
Q 1653 5019 2350 5019 
Q 3038 5019 3477 4619 
Q 3916 4219 3916 3572 
Q 3916 2997 3556 2611 
Q 3197 2225 2572 2138 
z
M 2316 4609 
Q 1825 4609 1514 4321 
Q 1203 4034 1203 3572 
Q 1203 3116 1515 2825 
Q 1828 2534 2316 2534 
Q 2806 2534 3122 2826 
Q 3438 3119 3438 3572 
Q 3438 4031 3125 4320 
Q 2813 4609 2316 4609 
z
" transform="scale(0.015625)"/>
      <path id="MalgunGothic-41" d="M 4134 0 
L 3575 0 
L 3075 1306 
L 1103 1306 
L 638 0 
L 75 0 
L 1844 4600 
L 2356 4600 
L 4134 0 
z
M 2903 1769 
L 2169 3756 
Q 2128 3866 2100 4059 
L 2084 4059 
Q 2050 3844 2009 3756 
L 1281 1769 
L 2903 1769 
z
" transform="scale(0.015625)"/>
      <path id="MalgunGothic-c11c" d="M 4947 -563 
L 4947 3072 
L 3541 3072 
L 3541 3488 
L 4947 3488 
L 4947 5466 
L 5416 5466 
L 5416 -563 
L 4947 -563 
z
M 3775 966 
Q 3269 1353 2826 1939 
Q 2384 2525 2266 2950 
Q 2122 2463 1694 1872 
Q 1266 1281 763 891 
L 403 1203 
Q 1147 1703 1587 2479 
Q 2028 3256 2028 4063 
L 2028 5050 
L 2491 5050 
L 2491 4084 
Q 2491 3303 2927 2556 
Q 3363 1809 4103 1331 
L 3775 966 
z
" transform="scale(0.015625)"/>
      <path id="MalgunGothic-b85c" d="M 1247 3641 
L 4659 3641 
L 4659 4531 
L 1259 4531 
L 1259 4941 
L 5125 4941 
L 5125 3238 
L 1722 3238 
L 1722 2241 
L 5300 2241 
L 5300 1825 
L 3438 1825 
L 3438 728 
L 5997 728 
L 5997 313 
L 403 313 
L 403 728 
L 2969 728 
L 2969 1825 
L 1247 1825 
L 1247 3641 
z
" transform="scale(0.015625)"/>
      <path id="MalgunGothic-b978" d="M 1344 2725 
L 1344 4200 
L 4588 4200 
L 4588 4856 
L 1344 4856 
L 1344 5269 
L 5056 5269 
L 5056 3788 
L 1806 3788 
L 1806 3144 
L 5197 3144 
L 5197 2725 
L 1344 2725 
z
M 403 1697 
L 403 2113 
L 5997 2113 
L 5997 1697 
L 403 1697 
z
M 1325 -422 
L 1325 1269 
L 1791 1269 
L 1791 0 
L 5203 0 
L 5203 -422 
L 1325 -422 
z
" transform="scale(0.015625)"/>
      <path id="MalgunGothic-c788" d="M 4947 2138 
L 4947 5466 
L 5416 5466 
L 5416 2138 
L 4947 2138 
z
M 2369 2400 
Q 1697 2400 1267 2809 
Q 838 3219 838 3847 
Q 838 4472 1264 4880 
Q 1691 5288 2369 5288 
Q 3047 5288 3472 4881 
Q 3897 4475 3897 3847 
Q 3897 3216 3470 2808 
Q 3044 2400 2369 2400 
z
M 2369 4891 
Q 1894 4891 1600 4598 
Q 1306 4306 1306 3847 
Q 1306 3381 1600 3089 
Q 1894 2797 2369 2797 
Q 2847 2797 3142 3090 
Q 3438 3384 3438 3847 
Q 3438 4300 3142 4595 
Q 2847 4891 2369 4891 
z
M 5778 -422 
Q 5463 -259 5138 80 
Q 4813 419 4684 709 
Q 4556 394 4239 47 
Q 3922 -300 3584 -488 
L 3238 -178 
Q 3778 78 4112 553 
Q 4447 1028 4447 1581 
L 4447 1844 
L 4909 1844 
L 4909 1581 
Q 4909 1031 5254 562 
Q 5600 94 6125 -103 
L 5778 -422 
z
M 3256 0 
Q 2681 359 2478 781 
Q 2138 0 1350 -475 
L 991 -178 
Q 1553 103 1897 578 
Q 2241 1053 2241 1581 
L 2241 1838 
L 2694 1838 
L 2694 1581 
Q 2694 1125 2953 781 
Q 3213 438 3597 306 
L 3256 0 
z
" transform="scale(0.015625)"/>
     </defs>
     <use xlink:href="#MalgunGothic-78"/>
     <use xlink:href="#MalgunGothic-c640" transform="translate(46.484375 0)"/>
     <use xlink:href="#MalgunGothic-20" transform="translate(146.484375 0)"/>
     <use xlink:href="#MalgunGothic-41" transform="translate(181.640625 0)"/>
     <use xlink:href="#MalgunGothic-78" transform="translate(247.460938 0)"/>
     <use xlink:href="#MalgunGothic-ac00" transform="translate(293.945312 0)"/>
     <use xlink:href="#MalgunGothic-20" transform="translate(393.945312 0)"/>
     <use xlink:href="#MalgunGothic-c11c" transform="translate(429.101562 0)"/>
     <use xlink:href="#MalgunGothic-b85c" transform="translate(529.101562 0)"/>
     <use xlink:href="#MalgunGothic-20" transform="translate(629.101562 0)"/>
     <use xlink:href="#MalgunGothic-b2e4" transform="translate(664.257812 0)"/>
     <use xlink:href="#MalgunGothic-b978" transform="translate(764.257812 0)"/>
     <use xlink:href="#MalgunGothic-20" transform="translate(864.257812 0)"/>
     <use xlink:href="#MalgunGothic-c9c1" transform="translate(899.414062 0)"/>
     <use xlink:href="#MalgunGothic-c120" transform="translate(999.414062 0)"/>
     <use xlink:href="#MalgunGothic-20" transform="translate(1099.414062 0)"/>
     <use xlink:href="#MalgunGothic-c704" transform="translate(1134.570312 0)"/>
     <use xlink:href="#MalgunGothic-c5d0" transform="translate(1234.570312 0)"/>
     <use xlink:href="#MalgunGothic-20" transform="translate(1334.570312 0)"/>
     <use xlink:href="#MalgunGothic-c788" transform="translate(1369.726562 0)"/>
     <use xlink:href="#MalgunGothic-b2e4" transform="translate(1469.726562 0)"/>
     <use xlink:href="#MalgunGothic-2e" transform="translate(1569.726562 0)"/>
    </g>
   </g>
  </g>
  <g id="axes_3">
   <g id="patch_5">
    <path d="M 491.35104 398.18304 
L 793.12896 398.18304 
Q 805.91616 398.18304 805.91616 388.50624 
L 805.91616 160.13376 
Q 805.91616 150.45696 793.12896 150.45696 
L 491.35104 150.45696 
Q 478.56384 150.45696 478.56384 160.13376 
L 478.56384 388.50624 
Q 478.56384 398.18304 491.35104 398.18304 
z
" style="fill: #fbf1e4; stroke: #e4d2bf; stroke-width: 1.4; stroke-linejoin: miter"/>
   </g>
   <g id="text_10">
    <!-- 고유벡터 -->
    <g style="fill: #c65d2e" transform="translate(501.5808 177.552) scale(0.18 -0.18)">
     <use xlink:href="#MalgunGothicBold-ace0"/>
     <use xlink:href="#MalgunGothicBold-c720" transform="translate(100 0)"/>
     <use xlink:href="#MalgunGothicBold-bca1" transform="translate(200 0)"/>
     <use xlink:href="#MalgunGothicBold-d130" transform="translate(300 0)"/>
    </g>
   </g>
   <g id="text_11">
    <!-- 변환 후에도 같은 직선 위에 남고 배율만 달라짐 -->
    <g style="fill: #675e57" transform="translate(501.5808 196.9056) scale(0.125 -0.125)">
     <defs>
      <path id="MalgunGothic-b9cc" d="M 5125 3169 
L 5125 1056 
L 4659 1056 
L 4659 5466 
L 5125 5466 
L 5125 3591 
L 6034 3591 
L 6034 3169 
L 5125 3169 
z
M 763 2241 
L 763 5100 
L 3513 5100 
L 3513 2241 
L 763 2241 
z
M 3053 4684 
L 1222 4684 
L 1222 2656 
L 3053 2656 
L 3053 4684 
z
M 1459 -331 
L 1459 1581 
L 1925 1581 
L 1925 91 
L 5294 91 
L 5294 -331 
L 1459 -331 
z
" transform="scale(0.015625)"/>
      <path id="MalgunGothic-b2ec" d="M 5119 3622 
L 5119 2388 
L 4653 2388 
L 4653 5466 
L 5119 5466 
L 5119 4038 
L 6028 4038 
L 6028 3622 
L 5119 3622 
z
M 3897 2841 
Q 3178 2778 831 2778 
L 831 5197 
L 3681 5197 
L 3681 4788 
L 1294 4788 
L 1294 3188 
L 1697 3188 
Q 3203 3188 3866 3238 
L 3897 2841 
z
M 1466 -428 
L 1466 1050 
L 4659 1050 
L 4659 1638 
L 1466 1638 
L 1466 2053 
L 5119 2053 
L 5119 647 
L 1925 647 
L 1925 -13 
L 5281 -13 
L 5281 -428 
L 1466 -428 
z
" transform="scale(0.015625)"/>
      <path id="MalgunGothic-b77c" d="M 5094 2503 
L 5094 -563 
L 4628 -563 
L 4628 5466 
L 5094 5466 
L 5094 2925 
L 6138 2925 
L 6138 2503 
L 5094 2503 
z
M 806 794 
L 806 3169 
L 3003 3169 
L 3003 4506 
L 806 4506 
L 806 4922 
L 3469 4922 
L 3469 2759 
L 1275 2759 
L 1275 1203 
Q 3419 1203 4063 1338 
L 4128 928 
Q 3284 794 806 794 
z
" transform="scale(0.015625)"/>
      <path id="MalgunGothic-c9d0" d="M 4922 2144 
L 4922 5466 
L 5388 5466 
L 5388 2144 
L 4922 2144 
z
M 3841 2328 
Q 3413 2563 2989 2964 
Q 2566 3366 2406 3706 
Q 2238 3316 1813 2869 
Q 1388 2422 947 2175 
L 609 2497 
Q 1278 2819 1723 3408 
Q 2169 3997 2169 4628 
L 2169 4781 
L 806 4781 
L 806 5197 
L 3981 5197 
L 3981 4781 
L 2625 4781 
L 2625 4628 
Q 2625 4031 3089 3479 
Q 3553 2928 4153 2681 
L 3841 2328 
z
M 1663 -397 
L 1663 1800 
L 5388 1800 
L 5388 -397 
L 1663 -397 
z
M 4928 1388 
L 2131 1388 
L 2131 13 
L 4928 13 
L 4928 1388 
z
" transform="scale(0.015625)"/>
     </defs>
     <use xlink:href="#MalgunGothic-bcc0"/>
     <use xlink:href="#MalgunGothic-d658" transform="translate(100 0)"/>
     <use xlink:href="#MalgunGothic-20" transform="translate(200 0)"/>
     <use xlink:href="#MalgunGothic-d6c4" transform="translate(235.15625 0)"/>
     <use xlink:href="#MalgunGothic-c5d0" transform="translate(335.15625 0)"/>
     <use xlink:href="#MalgunGothic-b3c4" transform="translate(435.15625 0)"/>
     <use xlink:href="#MalgunGothic-20" transform="translate(535.15625 0)"/>
     <use xlink:href="#MalgunGothic-ac19" transform="translate(570.3125 0)"/>
     <use xlink:href="#MalgunGothic-c740" transform="translate(670.3125 0)"/>
     <use xlink:href="#MalgunGothic-20" transform="translate(770.3125 0)"/>
     <use xlink:href="#MalgunGothic-c9c1" transform="translate(805.46875 0)"/>
     <use xlink:href="#MalgunGothic-c120" transform="translate(905.46875 0)"/>
     <use xlink:href="#MalgunGothic-20" transform="translate(1005.46875 0)"/>
     <use xlink:href="#MalgunGothic-c704" transform="translate(1040.625 0)"/>
     <use xlink:href="#MalgunGothic-c5d0" transform="translate(1140.625 0)"/>
     <use xlink:href="#MalgunGothic-20" transform="translate(1240.625 0)"/>
     <use xlink:href="#MalgunGothic-b0a8" transform="translate(1275.78125 0)"/>
     <use xlink:href="#MalgunGothic-ace0" transform="translate(1375.78125 0)"/>
     <use xlink:href="#MalgunGothic-20" transform="translate(1475.78125 0)"/>
     <use xlink:href="#MalgunGothic-bc30" transform="translate(1510.9375 0)"/>
     <use xlink:href="#MalgunGothic-c728" transform="translate(1610.9375 0)"/>
     <use xlink:href="#MalgunGothic-b9cc" transform="translate(1710.9375 0)"/>
     <use xlink:href="#MalgunGothic-20" transform="translate(1810.9375 0)"/>
     <use xlink:href="#MalgunGothic-b2ec" transform="translate(1846.09375 0)"/>
     <use xlink:href="#MalgunGothic-b77c" transform="translate(1946.09375 0)"/>
     <use xlink:href="#MalgunGothic-c9d0" transform="translate(2046.09375 0)"/>
    </g>
   </g>
   <g id="text_12">
    <!-- 핵심 -->
    <g style="fill: #8e3513" transform="translate(501.5808 366.2496) scale(0.125 -0.125)">
     <use xlink:href="#MalgunGothicBold-d575"/>
     <use xlink:href="#MalgunGothicBold-c2ec" transform="translate(100 0)"/>
    </g>
   </g>
   <g id="text_13">
    <!-- 고유벡터는 같은 직선 위에 남고, 고유값은 그 배율이다. -->
    <g style="fill: #675e57" transform="translate(533.5488 366.2496) scale(0.125 -0.125)">
     <use xlink:href="#MalgunGothic-ace0"/>
     <use xlink:href="#MalgunGothic-c720" transform="translate(100 0)"/>
     <use xlink:href="#MalgunGothic-bca1" transform="translate(200 0)"/>
     <use xlink:href="#MalgunGothic-d130" transform="translate(300 0)"/>
     <use xlink:href="#MalgunGothic-b294" transform="translate(400 0)"/>
     <use xlink:href="#MalgunGothic-20" transform="translate(500 0)"/>
     <use xlink:href="#MalgunGothic-ac19" transform="translate(535.15625 0)"/>
     <use xlink:href="#MalgunGothic-c740" transform="translate(635.15625 0)"/>
     <use xlink:href="#MalgunGothic-20" transform="translate(735.15625 0)"/>
     <use xlink:href="#MalgunGothic-c9c1" transform="translate(770.3125 0)"/>
     <use xlink:href="#MalgunGothic-c120" transform="translate(870.3125 0)"/>
     <use xlink:href="#MalgunGothic-20" transform="translate(970.3125 0)"/>
     <use xlink:href="#MalgunGothic-c704" transform="translate(1005.46875 0)"/>
     <use xlink:href="#MalgunGothic-c5d0" transform="translate(1105.46875 0)"/>
     <use xlink:href="#MalgunGothic-20" transform="translate(1205.46875 0)"/>
     <use xlink:href="#MalgunGothic-b0a8" transform="translate(1240.625 0)"/>
     <use xlink:href="#MalgunGothic-ace0" transform="translate(1340.625 0)"/>
     <use xlink:href="#MalgunGothic-2c" transform="translate(1440.625 0)"/>
     <use xlink:href="#MalgunGothic-20" transform="translate(1462.5 0)"/>
     <use xlink:href="#MalgunGothic-ace0" transform="translate(1497.65625 0)"/>
     <use xlink:href="#MalgunGothic-c720" transform="translate(1597.65625 0)"/>
     <use xlink:href="#MalgunGothic-ac12" transform="translate(1697.65625 0)"/>
     <use xlink:href="#MalgunGothic-c740" transform="translate(1797.65625 0)"/>
     <use xlink:href="#MalgunGothic-20" transform="translate(1897.65625 0)"/>
     <use xlink:href="#MalgunGothic-adf8" transform="translate(1932.8125 0)"/>
     <use xlink:href="#MalgunGothic-20" transform="translate(2032.8125 0)"/>
     <use xlink:href="#MalgunGothic-bc30" transform="translate(2067.96875 0)"/>
     <use xlink:href="#MalgunGothic-c728" transform="translate(2167.96875 0)"/>
     <use xlink:href="#MalgunGothic-c774" transform="translate(2267.96875 0)"/>
     <use xlink:href="#MalgunGothic-b2e4" transform="translate(2367.96875 0)"/>
     <use xlink:href="#MalgunGothic-2e" transform="translate(2467.96875 0)"/>
    </g>
   </g>
  </g>
  <g id="axes_4">
   <g id="line2d_1">
    <path d="M 162.492 294.27 
L 295.317 294.27 
" clip-path="url(#p1c345166ce)" style="fill: none; stroke: #d4c2af; stroke-width: 1.5; stroke-linecap: square"/>
   </g>
   <g id="line2d_2">
    <path d="M 220.452 337.74 
L 220.452 241.14 
" clip-path="url(#p1c345166ce)" style="fill: none; stroke: #d4c2af; stroke-width: 1.5; stroke-linecap: square"/>
   </g>
   <g id="text_14">
    <!-- x -->
    <g style="fill: #2f5d56" transform="translate(186.642 265.29) scale(0.14 -0.14)">
     <defs>
      <path id="MalgunGothicBold-78" d="M 3403 3284 
L 2313 1672 
L 3394 0 
L 2384 0 
L 1863 938 
Q 1769 1103 1722 1222 
L 1709 1222 
Q 1684 1150 1575 944 
L 1041 0 
L 41 0 
L 1153 1628 
L 100 3284 
L 1113 3284 
L 1628 2303 
Q 1725 2119 1763 2009 
L 1775 2009 
Q 1841 2175 1913 2300 
L 2450 3284 
L 3403 3284 
z
" transform="scale(0.015625)"/>
     </defs>
     <use xlink:href="#MalgunGothicBold-78"/>
    </g>
   </g>
   <g id="text_15">
    <!-- Ax -->
    <g style="fill: #c65d2e" transform="translate(270.201 254.664) scale(0.14 -0.14)">
     <use xlink:href="#MalgunGothicBold-41"/>
     <use xlink:href="#MalgunGothicBold-78" transform="translate(70.361328 0)"/>
    </g>
   </g>
   <g id="PathCollection_1">
    <defs>
     <path id="m84a8a443dc" d="M 0 2.645751 
C 0.701661 2.645751 1.374679 2.366978 1.870829 1.870829 
C 2.366978 1.374679 2.645751 0.701661 2.645751 0 
C 2.645751 -0.701661 2.366978 -1.374679 1.870829 -1.870829 
C 1.374679 -2.366978 0.701661 -2.645751 0 -2.645751 
C -0.701661 -2.645751 -1.374679 -2.366978 -1.870829 -1.870829 
C -2.366978 -1.374679 -2.645751 -0.701661 -2.645751 0 
C -2.645751 0.701661 -2.366978 1.374679 -1.870829 1.870829 
C -1.374679 2.366978 -0.701661 2.645751 0 2.645751 
z
" style="stroke: #8e3513"/>
    </defs>
    <g clip-path="url(#p1c345166ce)">
     <use xlink:href="#m84a8a443dc" x="220.452" y="294.27" style="fill: #8e3513; stroke: #8e3513"/>
    </g>
   </g>
   <g id="patch_6">
    <path d="M 218.892214 293.022171 
Q 204.755815 281.713052 194.548086 273.546869 
" style="fill: none; stroke: #2f5d56; stroke-width: 4.5; stroke-linecap: round"/>
    <path d="M 196.422171 277.607386 
L 194.548086 273.546869 
L 198.920951 274.483911 
z
" style="fill: #2f5d56; stroke: #2f5d56; stroke-width: 4.5; stroke-linecap: round"/>
   </g>
   <g id="patch_7">
    <path d="M 222.058659 293.081072 
Q 244.600223 276.400315 263.097535 262.712304 
" style="fill: none; stroke: #c65d2e; stroke-width: 4.5; stroke-linecap: round"/>
    <path d="M 258.692481 263.483992 
L 263.097535 262.712304 
L 261.071853 266.69936 
z
" style="fill: #c65d2e; stroke: #c65d2e; stroke-width: 4.5; stroke-linecap: round"/>
   </g>
  </g>
  <g id="axes_5">
   <g id="line2d_3">
    <path d="M 568.572 294.27 
L 701.397 294.27 
" clip-path="url(#pb4fcc3ce7a)" style="fill: none; stroke: #d4c2af; stroke-width: 1.5; stroke-linecap: square"/>
   </g>
   <g id="line2d_4">
    <path d="M 626.532 337.74 
L 626.532 241.14 
" clip-path="url(#pb4fcc3ce7a)" style="fill: none; stroke: #d4c2af; stroke-width: 1.5; stroke-linecap: square"/>
   </g>
   <g id="line2d_5">
    <path d="M 578.232 294.27 
L 691.737 294.27 
" clip-path="url(#pb4fcc3ce7a)" style="fill: none; stroke: #e0a284; stroke-width: 4.5; stroke-linecap: round"/>
   </g>
   <g id="text_16">
    <!-- x -->
    <g style="fill: #2f5d56" transform="translate(590.307 290.406) scale(0.14 -0.14)">
     <use xlink:href="#MalgunGothicBold-78"/>
    </g>
   </g>
   <g id="text_17">
    <!-- $Ax=\lambda x$ -->
    <g style="fill: #c65d2e" transform="translate(683.526 290.406) scale(0.14 -0.14)">
     <defs>
      <path id="DejaVuSans-Oblique-41" d="M 2356 4666 
L 3072 4666 
L 3938 0 
L 3278 0 
L 3084 1197 
L 984 1197 
L 325 0 
L -341 0 
L 2356 4666 
z
M 2584 4044 
L 1275 1722 
L 2988 1722 
L 2584 4044 
z
" transform="scale(0.015625)"/>
      <path id="DejaVuSans-Oblique-78" d="M 3841 3500 
L 2234 1784 
L 3219 0 
L 2559 0 
L 1819 1388 
L 531 0 
L -166 0 
L 1556 1844 
L 641 3500 
L 1300 3500 
L 1972 2234 
L 3144 3500 
L 3841 3500 
z
" transform="scale(0.015625)"/>
      <path id="DejaVuSans-3d" d="M 678 2906 
L 4684 2906 
L 4684 2381 
L 678 2381 
L 678 2906 
z
M 678 1631 
L 4684 1631 
L 4684 1100 
L 678 1100 
L 678 1631 
z
" transform="scale(0.015625)"/>
      <path id="DejaVuSans-Oblique-3bb" d="M 2350 4316 
L 3125 0 
L 2516 0 
L 2038 2588 
L 328 0 
L -281 0 
L 1903 3356 
L 1794 3975 
Q 1725 4369 1391 4369 
L 1091 4369 
L 1184 4863 
L 1550 4856 
Q 2253 4847 2350 4316 
z
" transform="scale(0.015625)"/>
     </defs>
     <use xlink:href="#DejaVuSans-Oblique-41" transform="translate(0 0.015625)"/>
     <use xlink:href="#DejaVuSans-Oblique-78" transform="translate(68.408203 0.015625)"/>
     <use xlink:href="#DejaVuSans-3d" transform="translate(147.070312 0.015625)"/>
     <use xlink:href="#DejaVuSans-Oblique-3bb" transform="translate(250.341797 0.015625)"/>
     <use xlink:href="#DejaVuSans-Oblique-78" transform="translate(309.521484 0.015625)"/>
    </g>
   </g>
   <g id="PathCollection_2">
    <g clip-path="url(#pb4fcc3ce7a)">
     <use xlink:href="#m84a8a443dc" x="626.532" y="294.27" style="fill: #8e3513; stroke: #8e3513"/>
    </g>
   </g>
   <g id="patch_8">
    <path d="M 624.530309 294.27 
Q 609.625989 294.27 599.752821 294.27 
" style="fill: none; stroke: #2f5d56; stroke-width: 4.5; stroke-linecap: round"/>
    <path d="M 603.752821 296.27 
L 599.752821 294.27 
L 603.752821 292.27 
z
" style="fill: #2f5d56; stroke: #2f5d56; stroke-width: 4.5; stroke-linecap: round"/>
   </g>
   <g id="patch_9">
    <path d="M 628.528826 294.27 
Q 654.304441 294.27 675.048903 294.27 
" style="fill: none; stroke: #c65d2e; stroke-width: 4.5; stroke-linecap: round"/>
    <path d="M 671.048903 292.27 
L 675.048903 294.27 
L 671.048903 296.27 
z
" style="fill: #c65d2e; stroke: #c65d2e; stroke-width: 4.5; stroke-linecap: round"/>
   </g>
  </g>
 </g>
 <defs>
  <clipPath id="pa5861df0d1">
   <rect x="7.2" y="7.2" width="864" height="504"/>
  </clipPath>
  <clipPath id="p1c345166ce">
   <rect x="152.832" y="231.48" width="154.56" height="115.92"/>
  </clipPath>
  <clipPath id="pb4fcc3ce7a">
   <rect x="558.912" y="231.48" width="154.56" height="115.92"/>
  </clipPath>
 </defs>
</svg>
