<svg width="1200" height="420" viewBox="0 0 1200 420" fill="none" xmlns="http://www.w3.org/2000/svg">
  <rect width="1200" height="420" rx="32" fill="#FFF8F0"/>
  <rect x="24" y="24" width="1152" height="372" rx="24" fill="#FFFDF9" stroke="#E8D9C8" stroke-width="2"/>
  <text x="58" y="82" fill="#8E3513" font-size="28" font-weight="800" font-family="SUIT, sans-serif">SVD를 이해하는 가장 쉬운 그림</text>
  <g transform="translate(58 128)">
    <rect width="280" height="210" rx="24" fill="#FAF1E6" stroke="#E6D4C1" stroke-width="2"/>
    <rect x="28" y="26" width="68" height="34" rx="17" fill="#23433E"/>
    <text x="49" y="50" fill="#FFFDF9" font-size="19" font-weight="800" font-family="SUIT, sans-serif">Vᵀ</text>
    <text x="28" y="96" fill="#1F1A17" font-size="24" font-weight="800" font-family="SUIT, sans-serif">입력 축 정렬</text>
    <text x="28" y="132" fill="#675E57" font-size="18" font-family="SUIT, sans-serif">먼저 회전해서 보기 좋은 기준축으로 맞춤</text>
    <circle cx="160" cy="168" r="40" stroke="#2F5D56" stroke-width="6" stroke-dasharray="10 12"/>
    <path d="M160 126L186 152" stroke="#2F5D56" stroke-width="7" stroke-linecap="round"/>
  </g>
  <text x="374" y="240" fill="#8E3513" font-size="58" font-weight="800" font-family="SUIT, sans-serif">→</text>
  <g transform="translate(462 128)">
    <rect width="280" height="210" rx="24" fill="#F7E8DF" stroke="#DDAF98" stroke-width="2"/>
    <rect x="28" y="26" width="68" height="34" rx="17" fill="#C65D2E"/>
    <text x="54" y="50" fill="#FFFDF9" font-size="19" font-weight="800" font-family="SUIT, sans-serif">Σ</text>
    <text x="28" y="96" fill="#1F1A17" font-size="24" font-weight="800" font-family="SUIT, sans-serif">축별 크기 변화</text>
    <text x="28" y="132" fill="#675E57" font-size="18" font-family="SUIT, sans-serif">중요한 축은 크게, 덜 중요한 축은 작게 스케일</text>
    <ellipse cx="156" cy="172" rx="84" ry="38" fill="none" stroke="#C65D2E" stroke-width="7"/>
  </g>
  <text x="778" y="240" fill="#8E3513" font-size="58" font-weight="800" font-family="SUIT, sans-serif">→</text>
  <g transform="translate(866 128)">
    <rect width="280" height="210" rx="24" fill="#FAF1E6" stroke="#E6D4C1" stroke-width="2"/>
    <rect x="28" y="26" width="68" height="34" rx="17" fill="#23433E"/>
    <text x="54" y="50" fill="#FFFDF9" font-size="19" font-weight="800" font-family="SUIT, sans-serif">U</text>
    <text x="28" y="96" fill="#1F1A17" font-size="24" font-weight="800" font-family="SUIT, sans-serif">출력 방향 정렬</text>
    <text x="28" y="132" fill="#675E57" font-size="18" font-family="SUIT, sans-serif">결과 공간의 방향에 맞게 다시 회전</text>
    <rect x="98" y="142" width="116" height="62" rx="18" fill="none" stroke="#2F5D56" stroke-width="7" transform="rotate(-18 98 142)"/>
  </g>
</svg>
